<?xml version="1.0" encoding="utf-8"?>
<!-- Generator: Adobe Illustrator 21.0.0, SVG Export Plug-In . SVG Version: 6.00 Build 0)  -->
<svg version="1.1" id="Layer_1" xmlns="http://www.w3.org/2000/svg" xmlns:xlink="http://www.w3.org/1999/xlink" x="0px" y="0px"
	 viewBox="0 0 150 140" enable-background="new 0 0 150 140" xml:space="preserve">
<g>
	<path fill="#FFD357" d="M75.018,0C57.678,0,40.61,1.16,23.884,3.404C10.216,5.238-0.015,16.849,0,30.64L0.016,45.1
		c0.013,12.109,4.829,23.718,13.391,32.281l61.611,61.611l61.591-61.591C145.183,68.826,150,57.197,150,45.071V30.606
		c0-13.781-10.229-25.376-23.887-27.207C109.4,1.159,92.345,0,75.018,0z"/>
	<path fill="#FFC817" d="M150,45.071V30.606c0-13.781-10.229-25.376-23.887-27.207C109.4,1.159,92.345,0,75.018,0v138.992
		l61.591-61.591C145.183,68.826,150,57.197,150,45.071z"/>
	<path fill="#FFFC9C" d="M75.018,9.973c16.637,0,33.382,1.114,49.77,3.311c8.688,1.164,15.239,8.611,15.239,17.322v14.465
		c0,9.549-3.719,18.526-10.47,25.278l-54.539,54.539L20.459,70.329c-6.742-6.742-10.46-15.706-10.47-25.24L9.973,30.63
		c-0.009-8.719,6.541-16.174,15.237-17.34C41.61,11.089,58.368,9.973,75.018,9.973 M75.018,0C57.678,0,40.61,1.16,23.884,3.404
		C10.216,5.238-0.015,16.849,0,30.64L0.016,45.1c0.013,12.109,4.828,23.718,13.391,32.281l61.611,61.611l61.591-61.591
		C145.183,68.826,150,57.197,150,45.071V30.606c0-13.781-10.229-25.376-23.887-27.207C109.4,1.159,92.345,0,75.018,0z"/>
</g>
</svg>
