<?xml version="1.0" encoding="utf-8"?>
<!-- Generator: Adobe Illustrator 21.0.0, SVG Export Plug-In . SVG Version: 6.00 Build 0)  -->
<svg version="1.1" id="Layer_1" xmlns="http://www.w3.org/2000/svg" xmlns:xlink="http://www.w3.org/1999/xlink" x="0px" y="0px"
	 viewBox="0 0 590 590" enable-background="new 0 0 590 590" xml:space="preserve">
<g>
	<g>
		<g>
			<path fill="#24CE70" d="M575.503,203.415L295,294.553V0C425.946,0,536.976,85.331,575.503,203.415z"/>
		</g>
		<g>
			<path fill="#EF2B92" d="M295,0v292.775l-1.686-0.548L15.028,201.814C54.036,84.555,164.644,0,295,0z"/>
		</g>
		<g>
			<path fill="#3EEDFF" d="M293.314,292.227l-1.045,1.441L119.18,531.902C46.854,478.136,0,392.038,0,295
				c0-32.56,5.276-63.897,15.028-93.186L293.314,292.227z"/>
		</g>
		<g>
			<path fill="#2700A0" d="M467.255,534.506C418.79,569.426,359.293,590,295,590c-65.886,0-126.724-21.602-175.82-58.098
				l173.089-238.234l1.045,1.433L467.255,534.506z"/>
		</g>
		<g>
			<path fill="#D81712" d="M590,295c0,98.631-48.397,185.951-122.745,239.506l-173.94-239.405l-1.045-1.433l1.045-1.441l1.686,0.548
				v1.778l280.503-91.138C584.918,232.249,590,263.03,590,295z"/>
		</g>
	</g>
	<g>
		<g>
			<line fill="none" x1="294.949" y1="295.331" x2="294.67" y2="294.961"/>
		</g>
		<g>
			<line fill="none" x1="294.003" y1="293.339" x2="293.558" y2="293.489"/>
		</g>
		<g>
			<line fill="none" x1="291.815" y1="293.633" x2="291.82" y2="294.09"/>
		</g>
		<g>
			<line fill="none" x1="291.856" y1="295.936" x2="291.413" y2="295.799"/>
		</g>
		<g>
			<polyline fill="none" points="294.67,294.961 293.617,296.469 293.351,296.856 			"/>
		</g>
		<g>
			<path fill="#FFFFFF" d="M309.784,441.37l0.57,4.67h18.715v-4.726h3.17l1.859,10.25h-23.745l-0.57,4.67h-3.322V441.37H309.784z"/>
			<path fill="#FFFFFF" d="M317.224,477.851c-3.657,0-6.431-0.838-8.323-2.514c-1.892-1.677-2.837-3.945-2.837-6.805
				c0-2.885,0.946-5.169,2.837-6.852c1.892-1.684,4.666-2.525,8.323-2.525h6.094c3.644,0,6.419,0.838,8.323,2.515
				c1.904,1.677,2.857,3.951,2.857,6.824c0,2.86-0.953,5.134-2.857,6.824c-1.904,1.69-4.679,2.534-8.323,2.534H317.224z
				 M323.887,472.328c2.189,0,3.793-0.329,4.812-0.987c1.018-0.658,1.528-1.607,1.528-2.847c0-1.252-0.506-2.202-1.518-2.847
				c-1.013-0.645-2.62-0.968-4.822-0.968h-7.194c-2.227,0-3.848,0.326-4.86,0.978c-1.012,0.651-1.518,1.61-1.518,2.876
				c0,1.24,0.506,2.182,1.518,2.829c1.012,0.645,2.632,0.967,4.86,0.967H323.887z"/>
			<path fill="#FFFFFF" d="M313.238,493.664c1.62,0,2.974,0.531,4.062,1.594c1.088,1.063,1.633,2.538,1.633,4.423
				c0,1.898-0.542,3.376-1.623,4.432c-1.082,1.057-2.439,1.585-4.072,1.585h-1.461c-1.645,0-3.005-0.525-4.081-1.575
				c-1.076-1.05-1.613-2.518-1.613-4.404c0-1.897,0.541-3.382,1.623-4.451c1.081-1.07,2.439-1.604,4.071-1.604H313.238z
				 M308.531,488.064l1.423-2.695l21.601,13.495l-1.424,2.696L308.531,488.064z M311.777,497.345c-0.721,0-1.338,0.219-1.851,0.655
				c-0.512,0.437-0.769,1.009-0.769,1.718c0,0.823,0.238,1.411,0.713,1.766c0.474,0.354,1.11,0.531,1.907,0.531h1.461
				c0.721,0,1.338-0.202,1.852-0.607c0.512-0.405,0.768-0.981,0.768-1.728c0-0.758-0.256-1.338-0.768-1.736
				c-0.513-0.398-1.13-0.598-1.852-0.598H311.777z M328.784,480.452c1.633,0,2.993,0.528,4.081,1.585
				c1.088,1.056,1.633,2.527,1.633,4.413c0,1.91-0.541,3.391-1.623,4.442c-1.081,1.05-2.445,1.575-4.091,1.575h-1.461
				c-1.632,0-2.987-0.525-4.062-1.575c-1.076-1.051-1.613-2.518-1.613-4.404c0-1.898,0.538-3.379,1.613-4.442
				c1.076-1.063,2.43-1.594,4.062-1.594H328.784z M327.323,484.135c-0.734,0-1.351,0.202-1.851,0.607s-0.75,0.987-0.75,1.746
				c0,0.734,0.25,1.303,0.75,1.708s1.117,0.607,1.851,0.607h1.461c0.734,0,1.358-0.205,1.87-0.617
				c0.512-0.411,0.768-0.99,0.768-1.736s-0.256-1.319-0.768-1.718c-0.512-0.398-1.136-0.597-1.87-0.597H327.323z"/>
			<path fill="#FFFFFF" d="M287.45,418.658c0,3.252-0.633,5.789-1.897,7.611c-1.266,1.822-3.158,2.734-5.676,2.734
				c-1.278,0-2.42-0.339-3.426-1.016c-1.006-0.677-1.762-1.66-2.268-2.952c-0.354,1.657-1.114,2.901-2.277,3.73
				c-1.164,0.829-2.512,1.244-4.044,1.244c-2.644,0-4.647-0.873-6.007-2.619c-1.361-1.747-2.041-4.221-2.041-7.422v-13.591h3.322
				l0.57,2.942h19.835l0.57-2.942h3.34v2.942V418.658z M272.038,414.862h-7.973v5.106c0,1.468,0.319,2.588,0.958,3.36
				c0.639,0.772,1.585,1.158,2.837,1.158c1.355,0,2.388-0.329,3.104-0.987c0.714-0.658,1.073-1.695,1.073-3.113V414.862z
				 M275.872,414.862v3.986c0,1.48,0.304,2.619,0.911,3.416c0.608,0.797,1.493,1.196,2.658,1.196c1.278,0,2.221-0.402,2.828-1.205
				c0.608-0.803,0.912-2.002,0.912-3.597v-3.796H275.872z"/>
			<path fill="#FFFFFF" d="M273.423,457.343c-4.05,0-7.397-1.159-10.041-3.474c-2.645-2.316-3.967-5.347-3.967-9.092
				c0-3.733,1.322-6.748,3.967-9.044c2.644-2.298,5.991-3.446,10.041-3.446h0.418c4.024,0,7.364,1.145,10.022,3.436
				c2.658,2.29,3.986,5.302,3.986,9.035c0,3.746-1.328,6.78-3.986,9.102s-5.998,3.484-10.022,3.484H273.423z M273.879,451.819
				c2.86,0,5.182-0.595,6.966-1.784c1.784-1.19,2.676-2.949,2.676-5.278c0-2.328-0.886-4.065-2.658-5.21
				c-1.772-1.145-4.099-1.718-6.985-1.718h-0.456c-2.911,0-5.254,0.58-7.033,1.737c-1.777,1.158-2.667,2.894-2.667,5.21
				c0,2.341,0.889,4.099,2.667,5.277c1.778,1.177,4.122,1.766,7.033,1.766H273.879z"/>
			<path fill="#FFFFFF" d="M287.45,487.808h-3.34l-0.57-2.961h-23.726v-5.524l18.602-11.161l-0.02-0.113h-14.691l-0.57,2.96h-3.322
				v-11.445h3.322l0.57,2.942h19.835l0.57-2.942h3.34v2.942v5.543l-18.601,11.16l0.019,0.114h14.672l0.57-2.961h3.34v8.485V487.808z
				"/>
			<path fill="#FFFFFF" d="M287.45,500.715h-3.34l-0.57-2.961h-14.425c-1.822,0-3.186,0.49-4.091,1.471s-1.357,2.325-1.357,4.034
				c0,1.734,0.449,3.093,1.347,4.081c0.899,0.987,2.265,1.481,4.1,1.481h14.425l0.57-2.943h3.34v11.446h-3.34l-0.57-2.961h-14.425
				c-3.101,0-5.492-1.022-7.175-3.066c-1.683-2.044-2.524-4.723-2.524-8.038c0-3.303,0.841-5.97,2.524-8.001
				c1.683-2.031,4.074-3.046,7.175-3.046h14.425l0.57-2.943h3.34v2.943v5.542V500.715z"/>
			<path fill="#FFFFFF" d="M278.624,539.95v-4.157l3.796-0.721c0.304-0.481,0.569-1.183,0.797-2.106
				c0.227-0.924,0.342-1.905,0.342-2.943c0-1.518-0.32-2.692-0.958-3.521c-0.639-0.829-1.465-1.243-2.477-1.243
				c-0.937,0-1.705,0.433-2.306,1.3s-1.237,2.364-1.907,4.49c-0.848,3.049-1.968,5.362-3.36,6.937
				c-1.393,1.575-3.221,2.363-5.486,2.363c-2.367,0-4.233-0.936-5.6-2.809c-1.367-1.872-2.05-4.341-2.05-7.403
				c0-2.189,0.348-4.166,1.043-5.932c0.696-1.766,1.657-3.237,2.885-4.413h5.771v4.29l-3.93,0.588
				c-0.455,0.557-0.832,1.313-1.129,2.268c-0.297,0.956-0.446,2.021-0.446,3.199c0,1.519,0.31,2.673,0.93,3.464
				c0.62,0.791,1.449,1.187,2.487,1.187c1.063,0,1.917-0.377,2.562-1.129c0.645-0.753,1.253-2.073,1.822-3.958
				c0.949-3.278,2.075-5.758,3.378-7.441c1.304-1.684,3.088-2.525,5.353-2.525c2.24,0,4.072,0.95,5.495,2.847
				c1.424,1.898,2.154,4.284,2.192,7.157c0,2.126-0.322,4.061-0.967,5.808c-0.646,1.747-1.506,3.214-2.582,4.404H278.624z"/>
		</g>
		<g>
			<path fill="#FFFFFF" d="M424.371,322.344l4.617,0.901l5.783-17.8l-4.495-1.46l0.979-3.015l10.323,1.399l-7.337,22.583
				l4.264,1.985l-1.026,3.159l-14.135-4.593L424.371,322.344z"/>
			<path fill="#FFFFFF" d="M461.366,326.541c-1.13,3.478-2.785,5.857-4.963,7.139c-2.18,1.281-4.63,1.48-7.349,0.595
				c-2.745-0.891-4.624-2.497-5.64-4.816s-0.959-5.218,0.171-8.697l1.883-5.794c1.126-3.467,2.781-5.846,4.964-7.139
				c2.183-1.293,4.64-1.496,7.373-0.608c2.719,0.883,4.588,2.492,5.606,4.826c1.019,2.334,0.964,5.233-0.162,8.699L461.366,326.541z
				 M458.172,318.498c0.676-2.083,0.86-3.709,0.55-4.882c-0.311-1.171-1.057-1.95-2.236-2.333c-1.192-0.387-2.251-0.198-3.177,0.564
				c-0.926,0.764-1.731,2.192-2.411,4.287l-2.223,6.841c-0.688,2.118-0.879,3.759-0.572,4.924c0.306,1.163,1.061,1.941,2.265,2.333
				c1.178,0.383,2.232,0.192,3.16-0.57c0.926-0.764,1.733-2.205,2.422-4.324L458.172,318.498z"/>
			<path fill="#FFFFFF" d="M482.489,333.404c-1.13,3.478-2.785,5.857-4.963,7.139c-2.18,1.282-4.629,1.48-7.35,0.596
				c-2.744-0.892-4.624-2.498-5.639-4.817c-1.017-2.32-0.96-5.218,0.17-8.696l1.883-5.795c1.126-3.466,2.781-5.846,4.964-7.139
				s4.641-1.496,7.372-0.608c2.721,0.883,4.589,2.492,5.608,4.826c1.018,2.333,0.964,5.233-0.162,8.699L482.489,333.404z
				 M479.294,325.361c0.676-2.083,0.859-3.71,0.549-4.882c-0.311-1.172-1.056-1.949-2.236-2.333
				c-1.191-0.388-2.251-0.198-3.176,0.565c-0.927,0.763-1.732,2.191-2.412,4.286l-2.223,6.841c-0.689,2.118-0.878,3.76-0.572,4.923
				c0.307,1.164,1.061,1.942,2.265,2.334c1.179,0.383,2.233,0.192,3.16-0.571c0.927-0.763,1.733-2.204,2.423-4.322L479.294,325.361z
				"/>
			<path fill="#FFFFFF" d="M489.514,344.827l-2.123-2.187l19.51-16.373l2.124,2.186L489.514,344.827z M488.534,323.213
				c0.504-1.553,1.427-2.683,2.769-3.392c1.34-0.709,2.908-0.771,4.702-0.188c1.815,0.591,3.056,1.562,3.723,2.917
				c0.664,1.353,0.742,2.812,0.234,4.377l-0.452,1.39c-0.505,1.553-1.423,2.678-2.753,3.376c-1.333,0.698-2.894,0.756-4.687,0.174
				c-1.806-0.587-3.048-1.556-3.727-2.907c-0.678-1.351-0.765-2.803-0.261-4.356L488.534,323.213z M491.586,325.741
				c-0.226,0.698-0.226,1.347,0.005,1.947c0.231,0.601,0.708,1.018,1.43,1.253c0.698,0.226,1.316,0.165,1.856-0.185
				c0.54-0.349,0.922-0.875,1.149-1.572l0.452-1.39c0.226-0.698,0.225-1.354-0.009-1.969c-0.232-0.615-0.704-1.038-1.413-1.268
				c-0.711-0.231-1.333-0.164-1.872,0.2c-0.537,0.365-0.918,0.896-1.145,1.594L491.586,325.741z M496.295,342.081
				c0.501-1.541,1.423-2.664,2.771-3.37c1.347-0.707,2.918-0.769,4.711-0.186c1.806,0.587,3.043,1.558,3.714,2.914
				c0.671,1.356,0.754,2.809,0.249,4.362l-0.452,1.39c-0.509,1.565-1.427,2.696-2.759,3.394c-1.33,0.699-2.893,0.756-4.687,0.174
				c-1.805-0.586-3.048-1.56-3.732-2.918c-0.682-1.36-0.771-2.815-0.266-4.368L496.295,342.081z M499.344,344.608
				c-0.223,0.687-0.206,1.341,0.051,1.964c0.258,0.622,0.723,1.042,1.397,1.261c0.783,0.254,1.415,0.211,1.899-0.131
				c0.484-0.343,0.848-0.892,1.094-1.651l0.452-1.39c0.223-0.686,0.221-1.335-0.006-1.948c-0.226-0.612-0.695-1.034-1.406-1.265
				c-0.721-0.234-1.352-0.169-1.889,0.194c-0.538,0.365-0.918,0.89-1.141,1.575L499.344,344.608z"/>
			<path fill="#FFFFFF" d="M406.431,339.998c3.092,1.004,5.309,2.39,6.652,4.157c1.342,1.767,1.624,3.848,0.846,6.243
				c-0.395,1.215-1.07,2.196-2.025,2.944c-0.955,0.748-2.124,1.163-3.508,1.245c1.467,0.849,2.414,1.955,2.843,3.319
				c0.428,1.364,0.406,2.773-0.067,4.229c-0.818,2.515-2.265,4.15-4.346,4.905c-2.083,0.754-4.645,0.636-7.689-0.353l-12.926-4.2
				l1.026-3.159l2.975,0.367l6.13-18.865l-2.623-1.45l1.032-3.177l2.799,0.909L406.431,339.998z M398.057,353.483l-2.464,7.581
				l4.856,1.578c1.396,0.454,2.559,0.495,3.491,0.126c0.932-0.369,1.59-1.15,1.978-2.341c0.419-1.287,0.426-2.373,0.021-3.256
				c-0.404-0.883-1.281-1.544-2.629-1.981L398.057,353.483z M399.242,349.836l3.791,1.232c1.408,0.458,2.585,0.521,3.53,0.189
				c0.947-0.33,1.599-1.05,1.959-2.157c0.394-1.216,0.304-2.236-0.273-3.063c-0.576-0.826-1.622-1.486-3.139-1.978l-3.61-1.173
				L399.242,349.836z"/>
			<path fill="#FFFFFF" d="M438.887,365.293c-1.251,3.852-3.388,6.676-6.407,8.476c-3.021,1.8-6.311,2.12-9.873,0.963
				c-3.551-1.154-6.01-3.343-7.376-6.568c-1.367-3.225-1.425-6.763-0.174-10.615l0.129-0.397c1.244-3.827,3.365-6.651,6.365-8.469
				c2.999-1.82,6.274-2.153,9.824-1c3.563,1.158,6.037,3.359,7.425,6.603c1.386,3.245,1.459,6.782,0.216,10.609L438.887,365.293z
				 M433.775,363.152c0.883-2.72,1.035-5.113,0.455-7.177c-0.58-2.064-1.977-3.456-4.191-4.176c-2.214-0.72-4.141-0.414-5.777,0.918
				c-1.636,1.331-2.901,3.367-3.792,6.112l-0.141,0.433c-0.9,2.768-1.073,5.177-0.521,7.225c0.551,2.049,1.929,3.431,4.132,4.146
				c2.226,0.723,4.173,0.422,5.842-0.906c1.669-1.327,2.954-3.374,3.854-6.142L433.775,363.152z"/>
			<path fill="#FFFFFF" d="M472.195,361.366l-1.032,3.177l-2.992-0.374l-7.332,22.566l-5.253-1.707l-4.868-21.141l-0.113-0.017
				l-4.54,13.972l2.639,1.456l-1.026,3.16l-10.885-3.536l1.026-3.16l2.974,0.367l6.13-18.865l-2.622-1.45l1.032-3.177l2.797,0.909
				l5.273,1.713l4.865,21.141l0.115,0.017l4.535-13.955l-2.641-1.456l1.033-3.177l8.07,2.623L472.195,361.366z"/>
			<path fill="#FFFFFF" d="M484.47,365.354l-1.032,3.177l-2.992-0.374l-4.459,13.721c-0.562,1.733-0.518,3.181,0.135,4.344
				c0.654,1.163,1.792,2.009,3.418,2.537c1.649,0.536,3.079,0.529,4.297-0.02c1.216-0.55,2.108-1.696,2.676-3.442l4.458-13.72
				l-2.624-1.451l1.032-3.176l10.887,3.536l-1.033,3.177l-2.992-0.374l-4.458,13.721c-0.958,2.949-2.67,4.908-5.134,5.876
				c-2.464,0.969-5.272,0.942-8.423-0.082c-3.142-1.021-5.418-2.645-6.83-4.875c-1.411-2.227-1.639-4.816-0.68-7.765l4.458-13.721
				l-2.623-1.45l1.033-3.177l2.797,0.91l5.273,1.713L484.47,365.354z"/>
			<path fill="#FFFFFF" d="M519.058,385.873l-3.954-1.285l0.487-3.833c-0.364-0.437-0.949-0.907-1.757-1.409
				c-0.808-0.502-1.706-0.914-2.693-1.234c-1.443-0.469-2.66-0.528-3.645-0.177c-0.985,0.352-1.636,1.009-1.948,1.972
				c-0.29,0.891-0.114,1.756,0.524,2.595s1.866,1.906,3.681,3.202c2.637,1.749,4.491,3.529,5.559,5.339s1.253,3.793,0.552,5.947
				c-0.731,2.251-2.198,3.736-4.401,4.458c-2.204,0.721-4.762,0.608-7.674-0.338c-2.082-0.676-3.855-1.619-5.32-2.826
				c-1.463-1.208-2.566-2.577-3.305-4.108l1.783-5.487l4.08,1.326l-0.656,3.919c0.389,0.605,0.992,1.197,1.809,1.775
				c0.817,0.579,1.785,1.049,2.905,1.412c1.445,0.47,2.638,0.532,3.581,0.186c0.943-0.346,1.577-1.011,1.897-1.999
				c0.329-1.01,0.233-1.938-0.282-2.786c-0.517-0.846-1.585-1.831-3.201-2.956c-2.825-1.916-4.835-3.753-6.033-5.513
				c-1.199-1.759-1.448-3.717-0.748-5.871c0.692-2.13,2.162-3.579,4.407-4.346c2.244-0.767,4.74-0.725,7.483,0.127
				c2.021,0.657,3.763,1.562,5.224,2.715c1.462,1.154,2.591,2.425,3.391,3.815L519.058,385.873z"/>
		</g>
		<g>
			<path fill="#FFFFFF" d="M357.627,145.245c1.064,4.433,2.492,7.97,4.282,10.607c1.79,2.639,4.262,5.393,7.417,8.263l2.116,1.866
				l-3.257,4.484l-2.116-1.866c-3.035-2.735-5.509-5.675-7.424-8.819c-1.916-3.143-3.3-6.551-4.153-10.22l-5.724,7.877l2.088,1.775
				l-2.499,3.44l-5.666-4.116l11.481-15.802L357.627,145.245z"/>
			<path fill="#FFFFFF" d="M380.219,135.593c2.958,2.15,4.71,4.459,5.254,6.927c0.546,2.468-0.022,4.859-1.703,7.173
				c-1.696,2.334-3.804,3.627-6.324,3.876c-2.519,0.25-5.258-0.7-8.217-2.85l-4.93-3.582c-2.948-2.142-4.7-4.451-5.256-6.927
				c-0.554-2.476,0.013-4.876,1.701-7.2c1.681-2.313,3.788-3.594,6.321-3.841c2.534-0.247,5.276,0.7,8.223,2.842L380.219,135.593z
				 M371.582,136.145c-1.771-1.286-3.262-1.963-4.473-2.029c-1.21-0.066-2.181,0.402-2.909,1.405
				c-0.737,1.014-0.885,2.079-0.446,3.196c0.441,1.118,1.55,2.323,3.331,3.617l5.82,4.228c1.802,1.309,3.304,1.999,4.507,2.066
				c1.202,0.068,2.174-0.41,2.918-1.434c0.728-1.003,0.874-2.063,0.434-3.18c-0.44-1.117-1.561-2.331-3.363-3.64L371.582,136.145z"
				/>
			<path fill="#FFFFFF" d="M372.395,126.695c-1.321-0.96-2.11-2.187-2.369-3.681c-0.26-1.495,0.164-3.005,1.273-4.53
				c1.123-1.546,2.43-2.426,3.924-2.639c1.491-0.214,2.903,0.163,4.234,1.13l1.183,0.858c1.32,0.959,2.107,2.181,2.361,3.663
				c0.252,1.482-0.176,2.986-1.284,4.511c-1.116,1.536-2.422,2.418-3.916,2.645c-1.495,0.228-2.904-0.139-4.223-1.098
				L372.395,126.695z M375.742,124.574c0.593,0.431,1.211,0.63,1.854,0.596c0.643-0.034,1.188-0.358,1.634-0.972
				c0.431-0.594,0.564-1.201,0.397-1.823c-0.167-0.621-0.547-1.148-1.14-1.579l-1.183-0.858c-0.593-0.431-1.218-0.632-1.875-0.6
				c-0.656,0.032-1.203,0.349-1.642,0.954c-0.439,0.604-0.568,1.218-0.388,1.841c0.181,0.623,0.567,1.152,1.161,1.583
				L375.742,124.574z M393.254,132.441l-2.737,1.344l-9.542-23.616l2.736-1.344L393.254,132.441z M392.738,125.144
				c-1.311-0.953-2.094-2.178-2.349-3.678c-0.256-1.5,0.17-3.013,1.278-4.538c1.116-1.535,2.423-2.412,3.918-2.631
				c1.497-0.218,2.906,0.152,4.227,1.112l1.182,0.859c1.33,0.967,2.122,2.191,2.375,3.673c0.253,1.482-0.175,2.986-1.283,4.511
				c-1.116,1.536-2.427,2.419-3.93,2.647c-1.503,0.23-2.917-0.136-4.236-1.095L392.738,125.144z M396.084,123.024
				c0.584,0.424,1.211,0.61,1.883,0.558c0.67-0.052,1.214-0.364,1.631-0.938c0.483-0.665,0.637-1.281,0.462-1.847
				c-0.177-0.565-0.586-1.082-1.231-1.551l-1.182-0.859c-0.584-0.424-1.202-0.623-1.856-0.597c-0.653,0.027-1.198,0.342-1.637,0.946
				c-0.446,0.614-0.58,1.233-0.399,1.856c0.182,0.624,0.563,1.148,1.147,1.572L396.084,123.024z"/>
			<path fill="#FFFFFF" d="M368.386,202.533c1.912-2.631,3.915-4.312,6.01-5.043c2.096-0.73,4.161-0.355,6.198,1.125
				c1.034,0.751,1.759,1.696,2.176,2.835c0.416,1.139,0.448,2.379,0.1,3.721c1.261-1.132,2.606-1.692,4.034-1.679
				c1.429,0.014,2.764,0.471,4.003,1.371c2.14,1.554,3.246,3.438,3.321,5.65s-0.831,4.614-2.712,7.204l-7.988,10.995l-2.687-1.953
				l1.269-2.715l-16.047-11.659l-2.191,2.045l-2.702-1.963l1.73-2.38L368.386,202.533z M375.521,212.41l2.344-3.225
				c0.87-1.198,1.294-2.297,1.272-3.3c-0.023-1.002-0.506-1.845-1.448-2.529c-1.034-0.751-2.033-0.98-2.996-0.687
				c-0.964,0.293-1.915,1.084-2.852,2.374l-2.232,3.071L375.521,212.41z M378.623,214.664l6.45,4.686l3.001-4.131
				c0.863-1.187,1.264-2.282,1.2-3.282c-0.063-1-0.601-1.868-1.614-2.604c-1.096-0.796-2.127-1.138-3.092-1.026
				c-0.964,0.112-1.864,0.742-2.697,1.888L378.623,214.664z"/>
			<path fill="#FFFFFF" d="M402.472,179.482c3.277,2.38,5.304,5.284,6.082,8.712c0.779,3.428,0.066,6.657-2.135,9.687
				c-2.194,3.02-5.037,4.683-8.526,4.986c-3.489,0.304-6.872-0.734-10.148-3.115l-0.338-0.245c-3.256-2.365-5.285-5.256-6.089-8.671
				c-0.804-3.415-0.109-6.632,2.085-9.652c2.202-3.03,5.06-4.704,8.575-5.02c3.516-0.316,6.9,0.708,10.156,3.073L402.472,179.482z
				 M398.858,183.683c-2.314-1.681-4.544-2.565-6.685-2.652c-2.142-0.086-3.898,0.812-5.268,2.696
				c-1.368,1.884-1.672,3.81-0.912,5.777c0.76,1.968,2.306,3.8,4.641,5.496l0.368,0.268c2.355,1.711,4.591,2.62,6.711,2.728
				c2.118,0.108,3.859-0.775,5.221-2.648c1.376-1.894,1.69-3.839,0.944-5.836c-0.748-1.998-2.297-3.851-4.652-5.562L398.858,183.683
				z"/>
			<path fill="#FFFFFF" d="M409.031,146.59l2.702,1.963l-1.279,2.731l19.194,13.946l-3.247,4.468l-21.609-1.904l-0.051,0.103
				l11.886,8.635l2.201-2.06l2.687,1.953l-6.728,9.26l-2.687-1.953l1.269-2.715l-16.047-11.658l-2.191,2.045l-2.702-1.963
				l1.73-2.381l3.258-4.484l21.608,1.904l0.052-0.103l-11.87-8.624l-2.202,2.06l-2.702-1.963l4.988-6.864L409.031,146.59z"/>
			<path fill="#FFFFFF" d="M416.618,136.148l2.702,1.963l-1.28,2.731l11.67,8.479c1.475,1.071,2.867,1.476,4.175,1.214
				c1.309-0.262,2.465-1.084,3.468-2.466c1.019-1.403,1.455-2.767,1.31-4.093c-0.147-1.327-0.963-2.529-2.448-3.608l-11.67-8.479
				l-2.19,2.045l-2.702-1.963l6.727-9.26l2.702,1.963l-1.279,2.731l11.67,8.479c2.509,1.822,3.844,4.055,4.003,6.697
				c0.16,2.643-0.733,5.305-2.682,7.987c-1.941,2.672-4.19,4.335-6.746,4.989c-2.554,0.654-5.085,0.07-7.595-1.753l-11.67-8.479
				l-2.191,2.045l-2.702-1.963l1.73-2.38l3.257-4.484L416.618,136.148z"/>
			<path fill="#FFFFFF" d="M446.819,109.594l-2.443,3.364l-3.494-1.648c-0.529,0.211-1.157,0.623-1.884,1.236
				c-0.727,0.613-1.396,1.34-2.006,2.179c-0.892,1.228-1.324,2.366-1.294,3.412c0.03,1.046,0.454,1.867,1.273,2.462
				c0.758,0.551,1.635,0.652,2.63,0.304c0.996-0.348,2.389-1.185,4.182-2.511c2.478-1.968,4.744-3.182,6.795-3.638
				c2.053-0.456,3.994-0.019,5.826,1.312c1.915,1.391,2.875,3.246,2.88,5.565c0.004,2.318-0.893,4.716-2.693,7.193
				c-1.287,1.771-2.73,3.167-4.331,4.186c-1.601,1.019-3.243,1.644-4.929,1.875l-4.669-3.392l2.521-3.47l3.526,1.833
				c0.695-0.183,1.445-0.573,2.247-1.171c0.801-0.599,1.549-1.373,2.241-2.325c0.892-1.228,1.321-2.345,1.284-3.349
				c-0.037-1.004-0.475-1.812-1.315-2.422c-0.86-0.625-1.773-0.822-2.737-0.592c-0.964,0.23-2.232,0.94-3.8,2.131
				c-2.695,2.094-5.063,3.439-7.107,4.034c-2.044,0.595-3.982,0.227-5.814-1.104c-1.813-1.317-2.737-3.161-2.773-5.533
				c-0.035-2.373,0.776-4.732,2.433-7.078c1.249-1.72,2.648-3.097,4.197-4.131c1.549-1.033,3.107-1.715,4.676-2.045L446.819,109.594
				z"/>
		</g>
		<g>
			<path fill="#FFFFFF" d="M172.367,191.205l-1.214,1.494l4.374,6.019l5.617-3.12c-0.612-0.197-1.23-0.514-1.854-0.953
				c-0.624-0.438-1.197-1.007-1.721-1.706c-1.592-2.128-2.151-4.264-1.676-6.408c0.476-2.144,1.901-4.079,4.276-5.805
				c2.15-1.562,4.408-2.213,6.771-1.951c2.364,0.261,4.431,1.61,6.201,4.046c1.488,2.048,2.203,4.211,2.145,6.489
				c-0.057,2.279-1.087,4.106-3.09,5.484l-0.1,0.024l-3.339-4.143c0.994-0.721,1.565-1.566,1.714-2.534s-0.108-1.908-0.77-2.82
				c-0.758-1.043-1.693-1.545-2.805-1.504c-1.112,0.041-2.262,0.493-3.449,1.356c-1.29,0.937-2.131,1.955-2.522,3.052
				c-0.39,1.097-0.203,2.173,0.562,3.227c0.618,0.85,1.251,1.388,1.899,1.613c0.648,0.225,1.315,0.238,1.998,0.038l2.617,4.151
				l-13.391,7.759l-9.35-12.869l5.098-3.704L172.367,191.205z"/>
			<path fill="#FFFFFF" d="M165.971,164.414c2.958-2.149,5.696-3.102,8.212-2.858c2.516,0.245,4.615,1.524,6.297,3.838
				c1.695,2.334,2.273,4.737,1.731,7.211c-0.541,2.473-2.29,4.786-5.248,6.935l-4.93,3.582c-2.948,2.142-5.686,3.095-8.212,2.857
				c-2.527-0.238-4.634-1.518-6.322-3.842c-1.682-2.313-2.248-4.713-1.7-7.199c0.548-2.486,2.296-4.8,5.244-6.942L165.971,164.414z
				 M163.829,172.799c-1.772,1.286-2.876,2.496-3.313,3.627c-0.437,1.131-0.292,2.198,0.437,3.202
				c0.736,1.013,1.703,1.484,2.902,1.411c1.199-0.073,2.688-0.756,4.469-2.05l5.82-4.229c1.802-1.309,2.92-2.526,3.356-3.648
				c0.436-1.122,0.283-2.195-0.462-3.219c-0.728-1.003-1.693-1.468-2.891-1.396c-1.198,0.073-2.698,0.764-4.5,2.073L163.829,172.799
				z"/>
			<path fill="#FFFFFF" d="M167.002,151.042l0.432,3.018l-25.407,1.779l-0.433-3.018L167.002,151.042z M155.091,169.104
				c-1.321,0.959-2.731,1.331-4.234,1.116c-1.501-0.215-2.805-1.084-3.914-2.61c-1.122-1.546-1.555-3.062-1.298-4.548
				c0.259-1.487,1.053-2.713,2.384-3.679l1.182-0.859c1.321-0.96,2.725-1.331,4.213-1.113c1.489,0.218,2.786,1.089,3.894,2.614
				c1.116,1.536,1.552,3.05,1.306,4.542c-0.245,1.492-1.029,2.717-2.349,3.677L155.091,169.104z M154.108,165.267
				c0.594-0.431,0.975-0.958,1.141-1.58c0.166-0.621,0.026-1.239-0.42-1.853c-0.431-0.593-0.968-0.908-1.611-0.941
				c-0.642-0.033-1.261,0.165-1.855,0.597l-1.183,0.859c-0.593,0.431-0.977,0.964-1.15,1.597c-0.173,0.634-0.04,1.254,0.399,1.858
				c0.438,0.603,0.982,0.916,1.632,0.937c0.648,0.022,1.27-0.184,1.863-0.614L154.108,165.267z M159.902,149.279
				c-1.31,0.952-2.717,1.318-4.222,1.098c-1.506-0.22-2.813-1.094-3.921-2.619c-1.116-1.535-1.546-3.049-1.292-4.54
				c0.255-1.491,1.042-2.715,2.362-3.674l1.183-0.859c1.331-0.967,2.74-1.342,4.227-1.125c1.488,0.218,2.786,1.09,3.894,2.615
				c1.116,1.534,1.551,3.054,1.304,4.555c-0.247,1.501-1.032,2.731-2.352,3.69L159.902,149.279z M158.921,145.441
				c0.583-0.424,0.954-0.963,1.112-1.618c0.158-0.654,0.028-1.267-0.388-1.84c-0.484-0.666-1.022-1.003-1.614-1.011
				c-0.592-0.008-1.21,0.223-1.855,0.692l-1.183,0.859c-0.584,0.424-0.964,0.95-1.14,1.579c-0.177,0.629-0.046,1.245,0.393,1.85
				c0.445,0.614,0.994,0.932,1.643,0.953c0.648,0.021,1.265-0.18,1.849-0.604L158.921,145.441z"/>
			<path fill="#FFFFFF" d="M225.895,196.238c-1.911-2.631-2.89-5.057-2.938-7.274c-0.047-2.219,0.948-4.068,2.985-5.548
				c1.034-0.751,2.157-1.148,3.369-1.192c1.211-0.042,2.401,0.307,3.569,1.055c-0.687-1.55-0.804-3.002-0.349-4.357
				s1.301-2.482,2.54-3.382c2.14-1.554,4.273-2.026,6.4-1.413c2.128,0.613,4.132,2.215,6.014,4.805l7.988,10.995l-2.687,1.953
				l-2.19-2.046l-16.048,11.659l1.269,2.715l-2.703,1.964l-1.73-2.381L225.895,196.238z M237.494,192.503l-2.343-3.225
				c-0.87-1.198-1.785-1.941-2.746-2.229c-0.959-0.288-1.91-0.09-2.852,0.595c-1.035,0.751-1.561,1.631-1.579,2.637
				c-0.02,1.007,0.439,2.156,1.376,3.446l2.231,3.071L237.494,192.503z M240.597,190.25l6.449-4.686l-3-4.131
				c-0.864-1.188-1.779-1.906-2.751-2.155c-0.971-0.249-1.963-0.004-2.976,0.732c-1.095,0.796-1.739,1.67-1.932,2.623
				c-0.19,0.952,0.13,2.002,0.962,3.149L240.597,190.25z"/>
			<path fill="#FFFFFF" d="M214.506,156.696c3.276-2.38,6.665-3.41,10.165-3.092c3.501,0.32,6.352,1.994,8.553,5.024
				c2.195,3.021,2.897,6.237,2.107,9.649c-0.79,3.413-2.823,6.308-6.098,8.689l-0.338,0.246c-3.255,2.365-6.631,3.403-10.128,3.112
				c-3.496-0.291-6.342-1.947-8.535-4.967c-2.202-3.031-2.911-6.266-2.126-9.707c0.785-3.44,2.805-6.343,6.06-8.708L214.506,156.696
				z M217.384,161.433c-2.313,1.681-3.843,3.528-4.588,5.538c-0.744,2.011-0.431,3.959,0.938,5.843
				c1.367,1.884,3.106,2.769,5.212,2.653c2.106-0.115,4.327-1.02,6.661-2.716l0.368-0.268c2.355-1.711,3.911-3.558,4.669-5.539
				c0.758-1.982,0.457-3.909-0.905-5.783c-1.376-1.894-3.128-2.794-5.259-2.701c-2.13,0.093-4.373,0.994-6.727,2.705
				L217.384,161.433z"/>
			<path fill="#FFFFFF" d="M185.251,140.295l2.703-1.964l2.201,2.061l19.195-13.947l3.246,4.469l-8.488,19.964l0.082,0.081
				l11.886-8.635l-1.28-2.73l2.687-1.953l6.727,9.259l-2.687,1.953l-2.189-2.045l-16.048,11.659l1.268,2.714l-2.702,1.964
				l-1.73-2.38l-3.258-4.484l8.49-19.964l-0.083-0.081l-11.871,8.625l1.281,2.73l-2.703,1.964l-4.988-6.865L185.251,140.295z"/>
			<path fill="#FFFFFF" d="M177.664,129.853l2.704-1.964l2.201,2.062l11.671-8.48c1.474-1.071,2.289-2.269,2.444-3.594
				c0.156-1.326-0.268-2.679-1.273-4.062c-1.019-1.403-2.182-2.239-3.488-2.51c-1.308-0.27-2.704,0.134-4.188,1.212l-11.671,8.48
				l1.27,2.715l-2.703,1.964l-6.728-9.26l2.703-1.964l2.201,2.062l11.671-8.48c2.508-1.822,5.044-2.402,7.607-1.737
				c2.563,0.664,4.819,2.336,6.767,5.018c1.941,2.672,2.829,5.324,2.661,7.956c-0.168,2.632-1.506,4.859-4.015,6.682l-11.671,8.48
				l1.269,2.716l-2.702,1.964l-1.73-2.382l-3.258-4.483L177.664,129.853z"/>
			<path fill="#FFFFFF" d="M161.743,92.923l2.444,3.364l-2.648,2.815c0.037,0.567,0.235,1.291,0.593,2.172
				c0.359,0.882,0.843,1.743,1.453,2.582c0.892,1.228,1.841,1.99,2.845,2.285c1.003,0.295,1.916,0.144,2.735-0.451
				c0.757-0.55,1.124-1.353,1.101-2.407c-0.022-1.055-0.388-2.64-1.095-4.754c-1.107-2.965-1.56-5.494-1.36-7.586
				c0.2-2.093,1.216-3.805,3.048-5.137c1.915-1.391,3.976-1.731,6.182-1.019c2.205,0.712,4.209,2.307,6.009,4.784
				c1.287,1.772,2.167,3.575,2.642,5.412c0.475,1.838,0.561,3.593,0.26,5.266l-4.669,3.392l-2.521-3.471l2.834-2.785
				c0.041-0.719-0.099-1.551-0.42-2.499c-0.321-0.948-0.828-1.897-1.52-2.85c-0.892-1.229-1.822-1.98-2.789-2.255
				c-0.965-0.275-1.869-0.109-2.71,0.501c-0.86,0.625-1.329,1.432-1.408,2.42c-0.079,0.99,0.205,2.414,0.852,4.274
				c1.159,3.209,1.705,5.877,1.64,8.005c-0.064,2.128-1.013,3.858-2.846,5.19c-1.812,1.316-3.852,1.625-6.119,0.926
				c-2.267-0.7-4.262-2.2-5.98-4.502c-1.249-1.72-2.126-3.475-2.631-5.268c-0.505-1.793-0.671-3.486-0.5-5.08L161.743,92.923z"/>
		</g>
		<g>
			<path fill="#FFFFFF" d="M161.31,371.535l-2.96,0.962c-1.251,0.407-2.072,1.035-2.462,1.887c-0.387,0.851-0.392,1.86-0.014,3.029
				c0.345,1.058,0.921,1.809,1.73,2.252c0.81,0.442,1.786,0.477,2.928,0.105c0.988-0.32,1.724-0.879,2.21-1.675
				c0.487-0.797,0.578-1.665,0.272-2.603l5.109-1.659l0.071,0.096c0.742,2.033,0.505,3.987-0.711,5.859
				c-1.215,1.871-3.043,3.204-5.486,3.998c-2.719,0.883-5.1,0.939-7.142,0.165c-2.04-0.775-3.452-2.364-4.234-4.771
				c-0.372-1.144-0.363-2.348,0.024-3.611c0.387-1.264,1.12-2.39,2.195-3.377c-1.624-0.046-2.993-0.479-4.104-1.302
				c-1.112-0.822-1.899-1.944-2.361-3.365c-0.782-2.407-0.52-4.584,0.782-6.531c1.304-1.946,3.322-3.364,6.054-4.251
				c2.443-0.794,4.751-0.829,6.921-0.104c2.172,0.725,3.61,2.276,4.316,4.655v0.12l-5.109,1.66c-0.329-1.011-0.96-1.728-1.896-2.147
				c-0.935-0.423-1.956-0.454-3.064-0.094c-1.215,0.395-2.066,1.043-2.55,1.947c-0.485,0.903-0.541,1.931-0.165,3.086
				c0.449,1.384,1.125,2.286,2.026,2.704c0.902,0.42,2.025,0.411,3.374-0.027l2.96-0.962L161.31,371.535z"/>
			<path fill="#FFFFFF" d="M126.908,377.023c-1.13-3.479-1.19-6.375-0.18-8.693c1.01-2.317,2.875-3.917,5.595-4.8
				c2.744-0.892,5.208-0.699,7.394,0.58c2.185,1.281,3.843,3.657,4.973,7.136l1.883,5.795c1.125,3.466,1.186,6.365,0.18,8.693
				c-1.005,2.33-2.875,3.938-5.607,4.827c-2.72,0.883-5.178,0.68-7.372-0.609c-2.196-1.288-3.856-3.667-4.983-7.132L126.908,377.023
				z M134.221,381.654c0.676,2.082,1.485,3.506,2.426,4.271c0.94,0.765,2,0.957,3.179,0.573c1.193-0.388,1.938-1.162,2.239-2.324
				s0.111-2.79-0.569-4.884l-2.223-6.841c-0.689-2.119-1.499-3.559-2.432-4.321c-0.932-0.76-2-0.946-3.203-0.554
				c-1.179,0.383-1.92,1.156-2.221,2.317c-0.302,1.163-0.107,2.803,0.581,4.922L134.221,381.654z"/>
			<path fill="#FFFFFF" d="M110.639,378.118c0.501,1.541,0.414,2.994-0.261,4.356c-0.675,1.365-1.908,2.337-3.702,2.919
				c-1.805,0.587-3.377,0.529-4.716-0.174c-1.339-0.703-2.262-1.83-2.766-3.383l-0.451-1.39c-0.509-1.564-0.429-3.02,0.237-4.367
				c0.667-1.348,1.897-2.313,3.69-2.896c1.806-0.587,3.384-0.53,4.735,0.168c1.351,0.698,2.279,1.824,2.784,3.376L110.639,378.118z
				 M106.686,377.866c-0.224-0.686-0.621-1.205-1.195-1.558c-0.574-0.351-1.198-0.419-1.872-0.2
				c-0.782,0.255-1.269,0.663-1.458,1.223c-0.19,0.56-0.163,1.219,0.084,1.978l0.451,1.39c0.223,0.686,0.606,1.21,1.15,1.573
				c0.545,0.362,1.171,0.428,1.88,0.197c0.722-0.234,1.195-0.657,1.415-1.268c0.221-0.611,0.219-1.259-0.004-1.945L106.686,377.866z
				 M114.51,371.912l3.003,0.52l-6.16,24.714l-3.003-0.521L114.51,371.912z M128.007,388.821c0.505,1.554,0.423,3.009-0.246,4.372
				c-0.668,1.361-1.899,2.334-3.692,2.917c-1.817,0.591-3.393,0.533-4.725-0.172c-1.333-0.704-2.255-1.838-2.763-3.404l-0.451-1.389
				c-0.505-1.552-0.424-3.004,0.243-4.351c0.666-1.348,1.896-2.312,3.689-2.895c1.806-0.587,3.38-0.533,4.723,0.162
				c1.343,0.694,2.267,1.819,2.772,3.371L128.007,388.821z M124.054,388.57c-0.226-0.699-0.611-1.223-1.15-1.573
				c-0.539-0.349-1.17-0.408-1.893-0.173c-0.698,0.226-1.162,0.64-1.393,1.241c-0.23,0.6-0.232,1.249-0.006,1.948l0.451,1.389
				c0.227,0.699,0.616,1.228,1.165,1.589c0.55,0.359,1.179,0.424,1.889,0.193c0.711-0.231,1.176-0.651,1.397-1.261
				c0.221-0.611,0.218-1.266-0.01-1.965L124.054,388.57z"/>
			<path fill="#FFFFFF" d="M175.873,329.808c-3.093,1.005-5.702,1.188-7.825,0.548c-2.124-0.64-3.576-2.159-4.354-4.552
				c-0.394-1.216-0.426-2.407-0.093-3.572c0.333-1.166,1.036-2.189,2.106-3.071c-1.687,0.176-3.103-0.162-4.252-1.013
				c-1.148-0.85-1.958-2.005-2.431-3.461c-0.817-2.514-0.606-4.689,0.635-6.522c1.24-1.833,3.383-3.244,6.427-4.234l12.926-4.2
				l1.026,3.159l-2.623,1.452l6.13,18.864l2.975-0.368l1.032,3.177l-2.798,0.91L175.873,329.808z M174.72,313.977l-2.464-7.582
				l-4.856,1.578c-1.396,0.454-2.363,1.103-2.899,1.95c-0.537,0.845-0.611,1.864-0.225,3.055c0.419,1.288,1.051,2.17,1.898,2.648
				c0.846,0.475,1.944,0.496,3.291,0.058L174.72,313.977z M175.905,317.623l-3.791,1.232c-1.408,0.458-2.397,1.098-2.968,1.922
				c-0.57,0.825-0.675,1.79-0.315,2.898c0.394,1.215,1.068,1.987,2.02,2.316c0.953,0.33,2.187,0.248,3.703-0.245l3.61-1.173
				L175.905,317.623z"/>
			<path fill="#FFFFFF" d="M134.747,328.421c-1.251-3.852-1.185-7.392,0.201-10.622c1.385-3.232,3.858-5.425,7.421-6.583
				c3.55-1.154,6.826-0.829,9.828,0.978c3.001,1.805,5.127,4.632,6.379,8.484l0.129,0.397c1.244,3.828,1.187,7.359-0.17,10.594
				c-1.357,3.236-3.811,5.43-7.362,6.583c-3.562,1.158-6.858,0.833-9.888-0.978c-3.03-1.811-5.166-4.628-6.41-8.456L134.747,328.421
				z M140.141,327.149c0.884,2.719,2.168,4.744,3.85,6.073c1.683,1.329,3.632,1.634,5.846,0.915c2.215-0.719,3.592-2.1,4.135-4.138
				c0.542-2.039,0.366-4.429-0.525-7.173l-0.141-0.434c-0.9-2.768-2.175-4.818-3.826-6.151c-1.65-1.333-3.576-1.642-5.778-0.926
				c-2.226,0.723-3.625,2.112-4.195,4.167s-0.404,4.466,0.495,7.234L140.141,327.149z"/>
			<path fill="#FFFFFF" d="M110.108,351.177l-1.033-3.178l2.64-1.456l-7.331-22.565l5.253-1.707L126,336.513l0.102-0.054
				l-4.54-13.971l-2.993,0.372l-1.027-3.159l10.886-3.536l1.026,3.159l-2.622,1.451l6.13,18.864l2.974-0.368l1.032,3.178
				l-2.797,0.909l-5.271,1.713l-16.364-14.242l-0.102,0.053l4.534,13.954l2.993-0.373l1.032,3.177l-8.069,2.622L110.108,351.177z"/>
			<path fill="#FFFFFF" d="M97.832,355.165l-1.032-3.177l2.639-1.457l-4.457-13.72c-0.564-1.733-1.451-2.877-2.664-3.435
				c-1.212-0.557-2.631-0.572-4.255-0.044c-1.65,0.536-2.805,1.383-3.466,2.542c-0.661,1.161-0.708,2.612-0.141,4.357l4.458,13.72
				l2.974-0.367l1.032,3.176l-10.885,3.537l-1.033-3.177l2.64-1.456l-4.458-13.72c-0.959-2.949-0.725-5.539,0.699-7.771
				c1.423-2.231,3.712-3.859,6.865-4.884c3.141-1.02,5.937-1.044,8.389-0.072c2.452,0.973,4.156,2.934,5.115,5.883l4.458,13.72
				l2.974-0.368l1.033,3.177l-2.798,0.91l-5.272,1.712L97.832,355.165z"/>
			<path fill="#FFFFFF" d="M57.79,358.896l3.953-1.284l1.858,3.387c0.552,0.141,1.302,0.176,2.251,0.107
				c0.949-0.069,1.917-0.264,2.904-0.585c1.445-0.47,2.462-1.136,3.053-2c0.591-0.864,0.729-1.776,0.417-2.74
				c-0.29-0.891-0.939-1.488-1.949-1.791c-1.01-0.305-2.63-0.446-4.859-0.427c-3.162,0.135-5.708-0.216-7.637-1.052
				c-1.929-0.837-3.243-2.333-3.942-4.487c-0.732-2.251-0.418-4.315,0.941-6.193c1.36-1.878,3.494-3.29,6.407-4.237
				c2.083-0.676,4.07-0.958,5.964-0.841c1.894,0.117,3.59,0.577,5.089,1.381l1.783,5.487l-4.08,1.326l-1.774-3.555
				c-0.671-0.261-1.506-0.386-2.507-0.373c-1,0.013-2.06,0.2-3.18,0.563c-1.444,0.469-2.446,1.122-3.006,1.956
				s-0.681,1.745-0.36,2.732c0.329,1.011,0.951,1.706,1.865,2.088c0.916,0.381,2.358,0.551,4.328,0.51
				c3.41-0.109,6.116,0.194,8.12,0.914c2.004,0.72,3.355,2.157,4.055,4.31c0.692,2.131,0.356,4.167-1.009,6.107
				c-1.366,1.939-3.407,3.372-6.129,4.296c-2.021,0.657-3.962,0.949-5.822,0.875c-1.86-0.074-3.523-0.438-4.986-1.094L57.79,358.896
				z"/>
		</g>
	</g>
</g>
</svg>
