<?xml version="1.0" encoding="utf-8"?>
<!-- Generator: Adobe Illustrator 21.0.0, SVG Export Plug-In . SVG Version: 6.00 Build 0)  -->
<svg version="1.1" id="Layer_1" xmlns="http://www.w3.org/2000/svg" xmlns:xlink="http://www.w3.org/1999/xlink" x="0px" y="0px"
	 viewBox="0 0 690 255" enable-background="new 0 0 690 255" xml:space="preserve">
<path fill="#B21010" d="M68.412,255l-5.534-70.189L0,147.382c19.136-12.165,39.125-23.432,59.413-33.488
	c26.099-12.938,53.32-24.187,80.905-33.436l40.536,120.907c-22.092,7.407-43.896,16.418-64.805,26.783
	C99.785,236.211,83.757,245.244,68.412,255z"/>
<path fill="#B21010" d="M621.704,255c-15.08-9.564-30.821-18.434-46.784-26.364c-20.595-10.231-42.065-19.15-63.813-26.511
	l40.88-120.791c27.156,9.191,53.96,20.326,79.666,33.096c19.911,9.891,39.542,20.953,58.346,32.878l-57.83,40.529L621.704,255z"/>
<polygon fill="#991010" points="570.758,192.805 511.107,201.926 524.915,160.313 "/>
<polygon fill="#991010" points="180.855,201.461 119.359,193.045 148.955,153.481 168.994,166.233 "/>
<path fill="#D81712" d="M119.359,193.045L50.949,85.426c16.309-10.368,33.346-19.971,50.637-28.542
	c37.117-18.399,76.355-32.565,116.625-42.105C259.61,4.973,302.35,0,345.247,0c42.976,0,85.795,4.991,127.265,14.834
	c40.341,9.575,79.642,23.792,116.81,42.257c16.965,8.428,33.697,17.856,49.729,28.022l-68.294,107.693
	c-12.308-7.805-25.15-15.041-38.169-21.508c-58.473-29.047-121.503-43.775-187.342-43.775c-65.714,0-128.638,14.675-187.022,43.617
	C144.956,177.715,131.88,185.086,119.359,193.045z"/>
<path fill="#FFFFFF" d="M165.694,123.882c-4.239,1.7-8.527,2.656-12.864,2.869c-4.338,0.212-8.5-0.41-12.486-1.866l3.798-11.673
	c6.253,1.889,12.129,1.73,17.631-0.476c1.758-0.706,2.987-1.524,3.686-2.457c0.699-0.933,0.84-1.918,0.425-2.954l-0.054-0.134
	c-0.198-0.494-0.488-0.889-0.866-1.181c-0.38-0.292-0.945-0.496-1.698-0.612c-0.752-0.115-1.704-0.138-2.854-0.07
	c-1.15,0.069-2.609,0.249-4.376,0.54c-2.76,0.428-5.361,0.727-7.805,0.897c-2.444,0.171-4.688,0.026-6.731-0.436
	c-2.043-0.46-3.856-1.327-5.439-2.599c-1.583-1.271-2.862-3.124-3.837-5.554l-0.054-0.134c-0.884-2.205-1.281-4.398-1.186-6.578
	c0.094-2.179,0.67-4.265,1.729-6.258c1.058-1.992,2.566-3.811,4.524-5.459c1.956-1.646,4.355-3.04,7.196-4.179
	c4.058-1.627,7.89-2.545,11.496-2.754c3.607-0.209,7.114,0.215,10.52,1.271l-2.832,11.925c-2.779-0.665-5.466-0.935-8.059-0.812
	c-2.593,0.125-4.95,0.611-7.069,1.461c-1.579,0.633-2.645,1.4-3.199,2.302c-0.554,0.902-0.66,1.78-0.317,2.635l0.054,0.135
	c0.216,0.54,0.529,0.963,0.941,1.268c0.41,0.307,0.988,0.505,1.732,0.6c0.745,0.094,1.714,0.097,2.909,0.008
	c1.194-0.086,2.676-0.276,4.444-0.568c2.94-0.499,5.66-0.794,8.164-0.884c2.503-0.089,4.746,0.122,6.731,0.633
	c1.984,0.511,3.703,1.401,5.156,2.674c1.452,1.272,2.621,3.012,3.505,5.216l0.054,0.135c0.975,2.43,1.379,4.777,1.213,7.037
	c-0.167,2.261-0.818,4.391-1.953,6.387c-1.136,1.998-2.737,3.815-4.801,5.452C171.055,121.327,168.579,122.725,165.694,123.882z"/>
<path fill="#FFFFFF" d="M175.597,64.644l20.987-6.12c3.078-0.898,5.988-1.329,8.731-1.294c2.743,0.035,5.214,0.529,7.415,1.481
	c2.2,0.953,4.092,2.363,5.673,4.229c1.581,1.867,2.767,4.153,3.556,6.857l0.041,0.14c0.843,2.892,1.06,5.587,0.65,8.084
	c-0.41,2.499-1.332,4.766-2.761,6.801c-1.431,2.038-3.331,3.806-5.702,5.306c-2.37,1.501-5.072,2.694-8.103,3.578l-6.715,1.959
	l4.08,13.991l-13.571,3.958L175.597,64.644z M202.703,83.154c2.424-0.707,4.158-1.835,5.199-3.385
	c1.04-1.549,1.274-3.309,0.699-5.279l-0.041-0.141c-0.615-2.109-1.772-3.515-3.468-4.216c-1.698-0.7-3.782-0.69-6.253,0.031
	l-6.366,1.856l3.795,13.012L202.703,83.154z"/>
<rect x="231.102" y="48.884" transform="matrix(0.978 -0.2085 0.2085 0.978 -10.2758 51.3129)" fill="#FFFFFF" width="14.209" height="51.009"/>
<polygon fill="#FFFFFF" points="252.025,45.18 265.135,43.486 289.446,67.532 285.992,40.793 299.795,39.009 306.329,89.598 
	294.018,91.188 268.779,66.233 272.363,93.985 258.559,95.768 "/>
<path fill="#FFFFFF" d="M364.221,84.629c-2.216,1.61-4.571,2.841-7.066,3.692c-2.494,0.851-5.223,1.249-8.185,1.193
	c-2.624-0.05-5.034-0.423-7.231-1.122c-2.198-0.698-4.098-1.692-5.701-2.987c-1.604-1.294-2.849-2.861-3.737-4.699
	c-0.889-1.839-1.31-3.924-1.266-6.256l0.003-0.146c0.122-6.411,3.66-11.106,10.617-14.083c-1.134-1.722-1.952-3.378-2.456-4.967
	c-0.505-1.588-0.741-3.208-0.709-4.86l0.002-0.146c0.035-1.845,0.433-3.599,1.194-5.261c0.76-1.662,1.845-3.11,3.253-4.348
	c1.408-1.236,3.115-2.212,5.122-2.928c2.005-0.714,4.246-1.049,6.723-1.001c2.332,0.044,4.426,0.424,6.283,1.14
	c1.856,0.716,3.431,1.669,4.72,2.859c1.288,1.191,2.27,2.594,2.944,4.211c0.672,1.616,0.992,3.347,0.957,5.192l-0.001,0.146
	c-0.061,3.158-1.022,5.787-2.884,7.889c-1.863,2.103-4.312,3.83-7.351,5.181l5.578,5.645c0.849-1.198,1.686-2.47,2.514-3.815
	c0.828-1.344,1.643-2.738,2.45-4.181l9.237,4.841c-1.107,1.922-2.223,3.772-3.35,5.548c-1.126,1.776-2.315,3.48-3.559,5.107
	l6.719,6.906l-9.674,6.667L364.221,84.629z M351.062,79.131c1.02,0.019,2.044-0.155,3.071-0.525
	c1.028-0.369,2.033-0.883,3.017-1.546l-8.215-8.683c-1.279,0.753-2.217,1.597-2.818,2.534c-0.601,0.936-0.91,1.914-0.93,2.934
	l-0.002,0.146c-0.029,1.506,0.505,2.732,1.606,3.675C347.888,78.61,349.314,79.098,351.062,79.131z M352.943,56.864
	c3.626-1.534,5.461-3.588,5.512-6.163l0.001-0.145c0.025-1.263-0.32-2.266-1.035-3.008c-0.715-0.743-1.654-1.125-2.819-1.147
	c-1.216-0.023-2.206,0.372-2.975,1.182c-0.77,0.813-1.167,1.898-1.192,3.257l-0.004,0.146c-0.017,0.973,0.183,1.911,0.603,2.818
	C351.454,54.712,352.09,55.731,352.943,56.864z"/>
<polygon fill="#FFFFFF" points="409.106,39.941 423.771,42.787 426.876,73.452 442.183,46.211 454.129,48.53 458.137,79.519 
	472.486,52.24 486.865,55.03 460.339,102.214 448.249,99.869 443.757,69.083 428.148,95.967 416.06,93.622 "/>
<rect x="470.001" y="78.505" transform="matrix(0.2937 -0.9559 0.9559 0.2937 268.1411 534.1191)" fill="#FFFFFF" width="51.009" height="14.21"/>
<polygon fill="#FFFFFF" points="521.812,66.82 534.087,71.724 543.616,104.563 553.617,79.525 566.543,84.688 547.62,132.058 
	536.092,127.453 526.195,93.367 515.815,119.353 502.891,114.189 "/>
</svg>
