<?xml version="1.0" encoding="utf-8"?>
<!-- Generator: Adobe Illustrator 21.0.0, SVG Export Plug-In . SVG Version: 6.00 Build 0)  -->
<svg version="1.1" id="Layer_1" xmlns="http://www.w3.org/2000/svg" xmlns:xlink="http://www.w3.org/1999/xlink" x="0px" y="0px"
	 viewBox="0 0 690 794" enable-background="new 0 0 690 794" xml:space="preserve">
<g>
	<rect x="212.431" y="638.614" fill="#FFC817" width="265.092" height="109.625"/>
	<path fill="#CC9C15" d="M212.431,680.218c41.227,15.518,85.894,24.013,132.547,24.013c46.652,0,91.32-8.495,132.546-24.013V631.28
		H212.431V680.218"/>
	<path fill="#FFC817" d="M689.398,344.422c0,190.218-154.202,344.421-344.421,344.421c-190.219,0-344.422-154.203-344.422-344.421
		C0.556,154.203,154.759,0,344.978,0C535.196,0,689.398,154.203,689.398,344.422"/>
	<path fill="#D81712" d="M638.972,344.422c0,162.368-131.626,293.993-293.994,293.993c-162.368,0-293.994-131.625-293.994-293.993
		c0-162.369,131.626-293.994,293.994-293.994C507.346,50.428,638.972,182.053,638.972,344.422"/>
	<polygon fill="#F8DD54" points="549.743,757.529 139.906,757.529 212.338,728.267 477.617,728.267 	"/>
	<path fill="#FFC817" d="M545.093,793.702h-400.23c-5.063,0-9.168-4.105-9.168-9.169V765c0-5.063,4.105-9.169,9.168-9.169h400.23
		c5.063,0,9.169,4.105,9.169,9.169v19.533C554.262,789.597,550.156,793.702,545.093,793.702z"/>
	<circle fill="#FFF6C7" cx="344.978" cy="26.27" r="14.67"/>
	<circle fill="#FFFFFF" cx="342.533" cy="24.131" r="8.252"/>
	<circle fill="#FFF6C7" cx="344.978" cy="665.291" r="14.67"/>
	<circle fill="#FFFFFF" cx="342.533" cy="663.152" r="8.252"/>
	<circle fill="#FFF6C7" cx="25.467" cy="345.781" r="14.67"/>
	<circle fill="#FFFFFF" cx="23.328" cy="348.225" r="8.252"/>
	<circle fill="#FFF6C7" cx="664.488" cy="345.781" r="14.67"/>
	<circle fill="#FFFFFF" cx="662.349" cy="348.225" r="8.252"/>
	<circle fill="#FFF6C7" cx="344.978" cy="26.27" r="14.67"/>
	<circle fill="#FFFFFF" cx="342.533" cy="24.131" r="8.252"/>
	<circle fill="#FFF6C7" cx="344.978" cy="665.291" r="14.67"/>
	<circle fill="#FFFFFF" cx="342.533" cy="663.152" r="8.252"/>
	<circle fill="#FFF6C7" cx="25.467" cy="345.781" r="14.67"/>
	<circle fill="#FFFFFF" cx="23.328" cy="348.225" r="8.252"/>
	<circle fill="#FFF6C7" cx="664.488" cy="345.781" r="14.67"/>
	<circle fill="#FFFFFF" cx="662.349" cy="348.225" r="8.252"/>
	
		<ellipse transform="matrix(0.7071 -0.7071 0.7071 0.7071 -49.8799 119.2866)" fill="#FFF6C7" cx="119.049" cy="119.853" rx="14.67" ry="14.67"/>
	
		<ellipse transform="matrix(0.7071 -0.7071 0.7071 0.7071 -50.9821 117.0593)" fill="#FFFFFF" cx="115.808" cy="120.069" rx="8.252" ry="8.252"/>
	
		<ellipse transform="matrix(0.7071 -0.7071 0.7071 0.7071 -237.0449 571.1406)" fill="#FFF6C7" cx="570.905" cy="571.709" rx="14.67" ry="14.67"/>
	
		<ellipse transform="matrix(0.7071 -0.7071 0.7071 0.7071 -238.1469 568.912)" fill="#FFFFFF" cx="567.664" cy="571.925" rx="8.252" ry="8.252"/>
	
		<ellipse transform="matrix(0.7071 -0.7071 0.7071 0.7071 -369.3905 251.6302)" fill="#FFF6C7" cx="119.049" cy="571.709" rx="14.67" ry="14.67"/>
	
		<ellipse transform="matrix(0.7071 -0.7071 0.7071 0.7071 -371.619 252.7325)" fill="#FFFFFF" cx="119.266" cy="574.95" rx="8.252" ry="8.252"/>
	
		<ellipse transform="matrix(0.7071 -0.7071 0.7071 0.7071 82.4619 438.7893)" fill="#FFF6C7" cx="570.905" cy="119.853" rx="14.67" ry="14.67"/>
	
		<ellipse transform="matrix(0.7071 -0.7071 0.7071 0.7071 80.2237 439.8768)" fill="#FFFFFF" cx="571.122" cy="123.094" rx="8.252" ry="8.252"/>
	
		<ellipse transform="matrix(0.3784 -0.9256 0.9256 0.3784 -177.556 185.3447)" fill="#FFF6C7" cx="49.226" cy="224.877" rx="14.67" ry="14.67"/>
	
		<ellipse transform="matrix(0.3784 -0.9256 0.9256 0.3784 -180.7074 183.5604)" fill="#FFFFFF" cx="46.32" cy="226.33" rx="8.252" ry="8.252"/>
	
		<ellipse transform="matrix(0.3784 -0.9256 0.9256 0.3784 -33.7157 883.1616)" fill="#FFF6C7" cx="640.729" cy="466.685" rx="14.67" ry="14.67"/>
	
		<ellipse transform="matrix(0.3784 -0.9256 0.9256 0.3784 -36.871 881.3696)" fill="#FFFFFF" cx="637.824" cy="468.139" rx="8.251" ry="8.252"/>
	
		<ellipse transform="matrix(0.3784 -0.9256 0.9256 0.3784 -454.5453 606.181)" fill="#FFF6C7" cx="224.073" cy="641.533" rx="14.67" ry="14.67"/>
	
		<ellipse transform="matrix(0.3784 -0.9256 0.9256 0.3784 -456.331 609.3329)" fill="#FFFFFF" cx="225.527" cy="644.438" rx="8.252" ry="8.252"/>
	
		<ellipse transform="matrix(0.3784 -0.9256 0.9256 0.3784 243.2852 462.3389)" fill="#FFF6C7" cx="465.882" cy="50.029" rx="14.67" ry="14.67"/>
	
		<ellipse transform="matrix(0.3784 -0.9256 0.9256 0.3784 241.4932 465.4872)" fill="#FFFFFF" cx="467.335" cy="52.934" rx="8.252" ry="8.252"/>
	
		<ellipse transform="matrix(0.9236 -0.3834 0.3834 0.9236 -2.4331 89.174)" fill="#FFF6C7" cx="222.468" cy="50.69" rx="14.67" ry="14.67"/>
	
		<ellipse transform="matrix(0.9236 -0.3834 0.3834 0.9236 -2.2696 87.9175)" fill="#FFFFFF" cx="219.39" cy="49.652" rx="8.252" ry="8.252"/>
	
		<ellipse transform="matrix(0.9236 -0.3834 0.3834 0.9236 -209.9934 228.2206)" fill="#FFF6C7" cx="467.487" cy="640.871" rx="14.669" ry="14.669"/>
	
		<ellipse transform="matrix(0.9236 -0.3834 0.3834 0.9236 -209.8402 226.9768)" fill="#FFFFFF" cx="464.408" cy="639.833" rx="8.252" ry="8.252"/>
	
		<ellipse transform="matrix(0.9236 -0.3834 0.3834 0.9236 -175.7387 54.9169)" fill="#FFF6C7" cx="49.887" cy="468.29" rx="14.67" ry="14.67"/>
	
		<ellipse transform="matrix(0.9236 -0.3834 0.3834 0.9236 -177.0071 54.7588)" fill="#FFFFFF" cx="48.849" cy="471.368" rx="8.252" ry="8.252"/>
	
		<ellipse transform="matrix(0.9236 -0.3834 0.3834 0.9236 -36.6881 262.4928)" fill="#FFF6C7" cx="640.068" cy="223.271" rx="14.67" ry="14.67"/>
	
		<ellipse transform="matrix(0.9236 -0.3834 0.3834 0.9236 -37.9499 262.2924)" fill="#FFFFFF" cx="639.03" cy="226.35" rx="8.252" ry="8.252"/>
</g>
</svg>
