<?xml version="1.0" encoding="utf-8"?>
<!-- Generator: Adobe Illustrator 21.0.0, SVG Export Plug-In . SVG Version: 6.00 Build 0)  -->
<svg version="1.1" id="Layer_1" xmlns="http://www.w3.org/2000/svg" xmlns:xlink="http://www.w3.org/1999/xlink" x="0px" y="0px"
	 viewBox="0 0 110 110" enable-background="new 0 0 110 110" xml:space="preserve">
<g>
	<circle fill="#FFD255" cx="55" cy="55" r="55"/>
	<circle fill="#FFC817" cx="55" cy="55" r="44.266"/>
	<path fill="#FFFFFF" d="M68.884,36.765h-6.203c0.914,1.683,1.515,3.678,1.803,5.986h6.167l-1.804,7.105h-4.4
		c-0.432,3.462-1.563,6.273-3.389,8.437c-1.828,2.164-4.593,3.678-8.295,4.544L65.637,81.55v0.506H53.954L39.458,61.574
		l-0.036-6.382h8.114c3.318,0,5.409-1.778,6.275-5.336H39.313l1.803-7.105h12.585c-0.745-2.813-2.537-4.266-5.373-4.363h-9.16
		l2.02-8.835h29.497L68.884,36.765z"/>
	<path fill="#FFFC9C" d="M55,15.71c21.665,0,39.29,17.625,39.29,39.29S76.665,94.291,55,94.291S15.71,76.665,15.71,55
		S33.335,15.71,55,15.71 M55,10.735c-24.447,0-44.266,19.818-44.266,44.266c0,24.447,19.818,44.266,44.266,44.266
		c24.447,0,44.266-19.819,44.266-44.266C99.266,30.553,79.447,10.735,55,10.735z"/>
</g>
</svg>
