<?xml version="1.0" encoding="utf-8"?>
<!-- Generator: Adobe Illustrator 21.0.0, SVG Export Plug-In . SVG Version: 6.00 Build 0)  -->
<svg version="1.1" id="Layer_1" xmlns="http://www.w3.org/2000/svg" xmlns:xlink="http://www.w3.org/1999/xlink" x="0px" y="0px"
	 viewBox="0 0 524 241" enable-background="new 0 0 524 241" xml:space="preserve">
<g>
	<path fill-rule="evenodd" clip-rule="evenodd" fill="#247F74" d="M24.037,23.868h475.926C513.238,23.868,524,34.63,524,47.905
		v108.966c0,13.274-8.813,24.838-24.037,29.646C484.74,191.324,24.037,241,24.037,241C10.762,241,0,230.237,0,216.963V47.905
		C0,34.63,10.762,23.868,24.037,23.868"/>
	<path fill-rule="evenodd" clip-rule="evenodd" fill="#39CFC0" d="M24.037,0h475.926C513.238,0,524,10.762,524,24.037v108.967
		c0,13.274-8.813,24.838-24.037,29.645c-15.223,4.808-475.926,54.483-475.926,54.483C10.762,217.132,0,206.37,0,193.095V24.037
		C0,10.762,10.762,0,24.037,0"/>
	<path fill="#FFFFFF" d="M131.002,95.759c3.781,3.592,6.153,8.661,7.115,15.223c0.961,6.937,1.024,13.796,0.192,20.604
		c-0.77,6.815-2.661,11.825-5.673,15.035c-1.475,1.759-3.206,2.961-5.192,3.61c-1.154,0.445-2.404,0.755-3.75,0.928
		c-1.219,0.157-2.564,0.18-4.039,0.069c-2.564-0.17-4.696-1.454-6.394-3.858c-1.699-2.412-2.805-5.61-3.317-9.593
		c-0.514-4.085-0.673-8.212-0.481-12.375c0.063-1.522,0.24-2.447,0.529-2.776c0.289-0.33,0.914-0.588,1.875-0.777l6.442-0.584
		c0.448-0.041,0.769,0.079,0.961,0.361c0.32,0.473,0.416,1.011,0.288,1.62c-0.064,4.498,0.16,7.869,0.673,10.108
		c0.32,1.563,0.865,2.501,1.634,2.813c0.897,0.498,1.794,0.399,2.692-0.295c0.897-0.89,1.474-2.24,1.73-4.049
		c0.385-3.403,0.512-6.977,0.385-10.725c-0.192-3.346-0.802-5.868-1.827-7.567c-0.961-1.409-2.019-2.666-3.173-3.771l-0.288-0.426
		c-0.192-0.185-0.577-0.578-1.154-1.184c-0.577-0.604-1.026-1.096-1.346-1.473c-1.218-1.21-2.821-3.802-4.807-7.79
		c-1.988-4.003-3.269-8.317-3.846-12.932c-0.706-5.523-0.769-11.735-0.192-18.622c0.447-6.166,1.923-11.126,4.422-14.869
		c1.731-2.416,3.781-3.82,6.153-4.222c2.436-0.599,4.582-0.646,6.442-0.153c2.436,0.591,4.486,2.115,6.154,4.56
		c1.666,2.439,2.724,5.411,3.172,8.923c0.513,4.68,0.64,9.754,0.385,15.231l-0.096,0.15c-0.064,0.98-0.208,1.62-0.433,1.922
		c-0.225,0.303-0.658,0.517-1.298,0.639l-0.289,0.012l-6.346,0.255c-0.642,0.025-1.058-0.107-1.25-0.396
		c-0.192-0.289-0.288-0.976-0.288-2.065v-1.484c0-5.142-0.161-8.601-0.481-10.375c-0.321-2.072-1.154-2.996-2.5-2.773
		c-0.577,0.011-1.122,0.319-1.634,0.926c-0.514,0.606-0.802,1.311-0.865,2.108c-0.706,4.303-0.738,8.987-0.096,14.046
		c0.127,1.092,0.32,2.129,0.577,3.111c0.255,0.985,0.529,1.868,0.817,2.649c0.289,0.782,0.64,1.535,1.058,2.259
		c0.416,0.725,0.784,1.302,1.106,1.73c0.32,0.429,0.705,0.905,1.153,1.425c0.448,0.521,0.784,0.899,1.01,1.133
		c0.224,0.236,0.544,0.539,0.961,0.91c0.416,0.372,0.657,0.555,0.721,0.552c0.127,0.092,0.48,0.415,1.058,0.974
		C130.233,95.067,130.681,95.483,131.002,95.759z"/>
	<path fill="#FFFFFF" d="M177.536,57.519c1.089,3.227,1.667,6.912,1.731,11.07c0.063,2.68,0.096,9.101,0.096,19.267l-0.096,1.669
		l-0.385,0.021l0.385-0.021v0.277v1.524c0,0.926-0.064,2.039-0.192,3.34c-0.321,2.981-0.834,5.605-1.539,7.878
		c-1.153,4.075-2.756,6.896-4.807,8.464c-1.603,1.255-3.59,1.986-5.961,2.19l-4.134,0.355c-0.192,0.017-0.289,0.217-0.289,0.592
		v30.768c0,0.19-0.033,0.336-0.096,0.438c-0.192,0.401-0.577,0.642-1.154,0.715l-0.096,0.013c-1.283,0.164-2.869,0.343-4.759,0.539
		c-1.891,0.192-3.221,0.34-3.99,0.438c-0.707,0.09-1.17-0.019-1.395-0.324c-0.225-0.307-0.336-0.988-0.336-2.046v-18.14V77.308
		V50.385c0-1.056,0.128-1.729,0.385-2.017c0.192-0.382,0.64-0.576,1.346-0.576H156l10.769-0.001c2.178,0,4.166,0.609,5.961,1.818
		C174.78,51.093,176.383,53.731,177.536,57.519z M162.441,84.651v0.141v2.979v11.765v0.143l0.096,0.277l0.577-0.039l0.577-0.039
		c0.512-0.035,1.089-0.168,1.73-0.401c1.409-0.847,2.147-2.351,2.211-4.515c0.063-1.976,0.096-5.075,0.096-9.298v-1.267v-1.269
		c0-9.478-0.033-15.155-0.096-17.032c-0.129-2.342-0.865-3.785-2.211-4.324c-0.321-0.181-0.898-0.265-1.73-0.25
		c-0.129-0.091-0.322-0.137-0.577-0.132l-0.577,0.01l-0.096,0.285v0.284v11.624v10.916V84.651z"/>
	<path fill="#FFFFFF" d="M203.207,50.34c0,0.627,0.032,1.074,0.096,1.343v3.487c0,8.948-0.064,22.28-0.192,40.005l-0.096,21.485
		v5.504v9.532c0,0.449-0.017,1.166-0.048,2.154c-0.033,0.99-0.048,1.706-0.048,2.153c-0.065,0.546-0.096,1.354-0.096,2.429
		c-0.129,1.092-0.545,1.682-1.25,1.771l-0.961,0.122c-3.654,0.466-6.41,0.861-8.269,1.188l-0.096,0.012
		c-0.385,0.05-0.706-0.091-0.961-0.423c-0.257-0.24-0.385-0.771-0.385-1.589c0-3.457,0.015-8.236,0.048-14.337
		c0.031-6.099,0.048-10.241,0.048-12.424v-12.147v-5.459v-0.136c0-0.09,0.015-2.162,0.048-6.213
		c0.031-4.049,0.048-8.78,0.048-14.193s0-9.803,0-13.169c0-2.456,0.032-4.32,0.096-5.597v-5.048c0-1.546,0.512-2.319,1.538-2.32
		l7.115-0.007l1.923-0.137C202.727,48.327,203.207,48.999,203.207,50.34z"/>
	<path fill="#FFFFFF" d="M241.666,48.296c0.896-0.001,1.346,0.72,1.346,2.156v7.483v8.498l-0.096,4.823v33.619
		c0,2.368-0.016,5.922-0.048,10.66c-0.033,4.742-0.081,8.299-0.144,10.674v5.837c0,1.355-0.113,2.216-0.337,2.581
		c-0.225,0.367-0.85,0.616-1.875,0.747l-1.827,0.232l-2.789,0.355l-0.096,0.013c-0.769,0.098-1.283-0.393-1.538-1.475
		c-0.514-2.077-2.101-7.082-4.759-15.056c-2.661-8.036-4.086-12.503-4.279-13.354c0-0.086-0.033-0.235-0.096-0.448
		c-0.064-0.21-0.129-0.357-0.192-0.439c-0.065,13.46-0.129,23.579-0.192,30.358c0,0.608-0.129,1.058-0.385,1.351
		c-0.257,0.381-0.577,0.595-0.961,0.645l-2.788,0.354c-0.898,0.028-2.276,0.16-4.134,0.396c-0.642,0.081-1.074-0.017-1.298-0.298
		c-0.225-0.278-0.336-0.858-0.336-1.739c0-5.723,0.032-9.995,0.096-12.82v-8.319v-8.582c0.063-3.35,0.111-8.327,0.144-14.931
		c0.032-6.602,0.048-11.574,0.048-14.919v-9.505v-7.92v-4.226v-4.487c0-1.32,0.448-1.98,1.346-1.981l1.634-0.002
		c2.948-0.178,5.159-0.268,6.634-0.269c0.64-0.001,1.089,0.478,1.346,1.429c0.063,0.347,2.339,8.543,6.827,24.437l0.096-22.396
		v-0.772c0-0.085,0.015-0.257,0.048-0.515c0.032-0.258,0.048-0.429,0.048-0.516c-0.129-0.515-0.033-0.9,0.289-1.158
		c0.192-0.341,0.48-0.515,0.865-0.516L241.666,48.296z"/>
	<path fill="#FFFFFF" d="M308.294,48.243c0.896,0,1.346,0.649,1.346,1.946v6.756v7.671l-0.096,4.354v30.349
		c0,2.139-0.017,5.347-0.048,9.625c-0.033,4.28-0.082,7.492-0.145,9.637v5.27c0,1.223-0.113,2.002-0.337,2.334
		c-0.226,0.335-0.85,0.567-1.875,0.697l-1.826,0.233l-2.788,0.355l-0.097,0.012c-0.77,0.099-1.283-0.339-1.538-1.313
		c-0.514-1.872-2.101-6.379-4.76-13.563c-2.66-7.247-4.086-11.277-4.278-12.047c0-0.078-0.033-0.213-0.096-0.405
		c-0.064-0.189-0.13-0.322-0.192-0.396c-0.064,12.185-0.13,21.346-0.192,27.483c0,0.551-0.129,0.958-0.385,1.227
		c-0.257,0.348-0.577,0.546-0.961,0.595l-2.789,0.355c-0.898,0.036-2.275,0.172-4.134,0.408c-0.642,0.082-1.074-0.002-1.298-0.254
		c-0.226-0.25-0.337-0.774-0.337-1.573c0-5.188,0.031-9.062,0.097-11.624v-7.541v-7.78c0.063-3.037,0.11-7.55,0.144-13.536
		c0.032-5.984,0.048-10.492,0.048-13.525v-8.616v-7.18v-3.83v-4.068c0-1.197,0.448-1.796,1.347-1.797l1.635-0.002
		c2.947-0.161,5.158-0.242,6.634-0.243c0.64-0.001,1.089,0.432,1.346,1.293c0.063,0.314,2.339,7.729,6.826,22.093l0.097-20.25
		v-0.698c0-0.077,0.015-0.232,0.048-0.466c0.031-0.233,0.048-0.388,0.048-0.466c-0.129-0.465-0.032-0.814,0.289-1.047
		c0.192-0.309,0.48-0.466,0.865-0.467L308.294,48.243z"/>
	<path fill="#FFFFFF" d="M346.655,54.242c1.025,1.994,1.667,4.24,1.924,6.737c0.447,4.278,0.673,11.596,0.673,21.954
		c-0.064,2.22-0.097,5.617-0.097,10.189c0.063,1.854,0.032,5-0.096,9.441c-0.129,4.516-0.48,7.949-1.058,10.303
		c-1.283,4.81-4.038,8.097-8.269,9.86c-1.604,0.642-3.237,1.07-4.903,1.284c-0.898,0.116-2.245,0.14-4.038,0.077
		c-4.615-0.449-7.5-3.296-8.653-8.542c-0.642-2.773-0.962-6.483-0.962-11.13V94.305c0.063-2.701,0.097-4.727,0.097-6.074v-4.719
		v-11.46c0.127-4.571,0.319-7.986,0.576-10.237c0.577-4.199,1.891-7.578,3.942-10.128c1.474-1.64,3.14-2.719,5-3.239
		c2.947-0.81,5.8-0.883,8.557-0.229C342.681,49.013,345.117,51.021,346.655,54.242z M332.618,85.599v4.19v9.812
		c0.128,6.016,0.192,10.232,0.192,12.657c0.063,1.096,0.577,1.737,1.538,1.923c0.897,0.339,1.666-0.004,2.308-1.025
		c0.385-0.918,0.577-1.631,0.577-2.143c0.063-1.318,0.096-3.327,0.096-6.025v-1.095c0-0.728,0.016-1.822,0.049-3.285
		c0.031-1.46,0.048-2.556,0.048-3.285c0-2.113,0.015-5.25,0.048-9.408c0.031-4.156,0.048-7.29,0.048-9.406
		c0-3.644-0.064-8.816-0.192-15.521l-0.096-3.499c0-1.239-0.642-1.92-1.923-2.047c-1.154-0.273-1.86,0.215-2.115,1.466
		c-0.257,0.887-0.385,1.771-0.385,2.652c0,6.762-0.033,11.759-0.096,14.994v6.393c-0.065,0.52-0.097,1.147-0.097,1.881V85.599z"/>
	<path fill="#FFFFFF" d="M407.516,47.876c0.832,0.064,1.25,0.577,1.25,1.538v1.347c0,0.321-0.017,0.802-0.048,1.441
		c-0.033,0.643-0.082,1.092-0.145,1.349c-0.257,3.212-0.625,7.968-1.105,14.277c-0.481,6.322-0.851,11.007-1.106,14.049
		l-1.249,15.767c-0.13,1.821-0.258,3.189-0.385,4.106c-0.064,1.623-0.226,3.901-0.481,6.839c0,0.388-0.032,0.91-0.096,1.563
		c-0.064,0.654-0.129,1.18-0.192,1.575l-0.288,1.782c0,0.714-0.321,1.109-0.962,1.191l-0.096,0.012l-14.807,1.888
		c-0.706,0.09-1.091-0.228-1.154-0.956c-0.129-0.786-0.192-1.379-0.192-1.78c-0.064-0.394-0.129-0.921-0.192-1.581
		c-0.064-0.661-0.129-1.189-0.191-1.584c-0.065-0.728-0.145-1.872-0.241-3.435c-0.096-1.563-0.177-2.743-0.24-3.54
		c0-0.468-0.048-1.165-0.144-2.095c-0.097-0.927-0.178-1.624-0.241-2.087l-0.48-6.694l-0.48,6.786
		c-0.129,1.894-0.257,3.315-0.385,4.269c-0.064,1.687-0.226,4.056-0.48,7.108c0,0.27-0.033,0.627-0.097,1.071
		c-0.064,0.445-0.112,0.838-0.144,1.177c-0.033,0.341-0.049,0.679-0.049,1.016l-0.288,1.852c0,0.741-0.321,1.151-0.961,1.233
		l-0.097,0.012l-14.902,1.899c-0.642,0.082-0.995-0.253-1.058-1.01l-0.289-1.839c0-0.347-0.017-0.691-0.048-1.036
		c-0.033-0.342-0.081-0.735-0.145-1.181c-0.064-0.443-0.096-0.805-0.096-1.083c-0.257-3.098-0.418-5.513-0.48-7.245
		c-0.064-0.479-0.145-1.201-0.24-2.166c-0.097-0.964-0.145-1.69-0.145-2.179l-1.25-16.931c-0.514-7.295-1.25-17.46-2.211-30.52
		c-0.065-0.559-0.097-1.574-0.097-3.044v-1.472c0-1.05,0.385-1.609,1.154-1.681c1.346-0.069,2.932-0.105,4.759-0.105
		s2.868,0.036,3.125,0.104c0.896-0.068,1.377,0.448,1.442,1.547c0.063,0.412,0.127,1.047,0.192,1.905
		c0.063,0.86,0.096,1.494,0.096,1.906c0,0.48,0.031,1.185,0.096,2.11c0.063,0.927,0.128,1.631,0.192,2.108
		c0.577,7.397,1.409,20.384,2.5,38.915c0.128-2.607,0.433-6.629,0.913-12.056c0.481-5.417,0.945-10.552,1.395-15.407
		c0.447-4.845,0.865-9.273,1.25-13.29c0.385-4.009,0.577-6.078,0.577-6.215c0.127-1.084,0.608-1.594,1.441-1.526
		c0.256-0.067,1.858-0.103,4.808-0.103c3.205,0,4.903,0.034,5.096,0.101c0.897-0.066,1.378,0.432,1.442,1.49
		c0,0.066,0.192,2.085,0.577,6.054c0.385,3.964,0.784,8.267,1.202,12.91c0.416,4.636,0.849,9.545,1.298,14.724
		c0.447,5.17,0.735,8.997,0.865,11.485c0.319-5.286,1.12-17.819,2.403-37.532c0.128-1.703,0.256-3.047,0.385-4.029
		c0-0.851,0.063-2.062,0.192-3.632c0.063-1.046,0.544-1.537,1.442-1.473c0.255-0.064,1.313-0.099,3.173-0.099
		C404.663,47.779,406.232,47.813,407.516,47.876z"/>
</g>
</svg>
