<?xml version="1.0" encoding="utf-8"?>
<!-- Generator: Adobe Illustrator 21.0.0, SVG Export Plug-In . SVG Version: 6.00 Build 0)  -->
<svg version="1.1" id="Layer_1" xmlns="http://www.w3.org/2000/svg" xmlns:xlink="http://www.w3.org/1999/xlink" x="0px" y="0px"
	 viewBox="0 0 375 116" enable-background="new 0 0 375 116" xml:space="preserve">
<g>
	<path fill="#FFFFFF" d="M45.495,64.537c0.228-1.687-0.017-3.094-0.735-4.222S42.55,58.082,40.282,57
		c-2.268-1.082-4.165-2.205-5.691-3.367c-4.17-3.167-6.084-7.166-5.742-11.997c0.205-2.78,1.077-5.258,2.615-7.434
		s3.594-3.868,6.169-5.076s5.332-1.777,8.271-1.709c4.261,0.091,7.593,1.567,9.998,4.426c2.404,2.86,3.515,6.523,3.333,10.989
		l-9.775-0.034c0.25-4.671-1.242-7.041-4.478-7.109c-1.664-0.045-3.093,0.496-4.29,1.624s-1.92,2.581-2.17,4.358
		c-0.342,2.666,1.504,4.945,5.537,6.836c4.033,1.892,6.927,4.022,8.682,6.392c1.959,2.621,2.791,5.811,2.495,9.571
		c-0.342,4.329-2.051,7.787-5.127,10.373s-6.916,3.834-11.519,3.742c-4.626-0.091-8.283-1.662-10.972-4.717
		c-2.689-3.053-3.919-6.961-3.691-11.723l9.844,0.033c-0.183,2.939,0.199,5.042,1.145,6.307c0.945,1.265,2.432,1.896,4.46,1.896
		c1.777-0.021,3.179-0.574,4.204-1.657C44.606,67.641,45.244,66.246,45.495,64.537z"/>
	<path fill="#FFFFFF" d="M98.063,36.475H86.134l-7.178,41.392h-9.844l7.178-41.392H64.533l1.47-8.374h33.53L98.063,36.475z"/>
	<path fill="#FFFFFF" d="M125.509,56.333h-15.176l-2.29,13.194h17.979l-1.47,8.34H96.798l8.613-49.766h27.72l-1.47,8.374h-17.876
		l-2.051,11.758h15.21L125.509,56.333z"/>
	<path fill="#FFFFFF" d="M143.317,60.367l-3.042,17.5h-9.81l8.613-49.766l15.962,0.034c4.352,0.137,7.764,1.692,10.236,4.666
		s3.515,6.808,3.128,11.501c-0.456,4.876-2.302,8.779-5.537,11.707c-3.236,2.929-7.36,4.392-12.373,4.392L143.317,60.367z
		 M144.752,51.992l6.323,0.068c2.438-0.045,4.329-0.985,5.674-2.82c1.344-1.834,1.982-4.301,1.914-7.4
		c-0.046-1.572-0.422-2.825-1.128-3.76c-0.707-0.934-1.687-1.447-2.939-1.538l-7.144-0.068L144.752,51.992z"/>
</g>
<g>
	<path fill="#FFFFFF" d="M228.682,31.138h-4.166l-2.506,14.453h-3.438l2.507-14.453h-4.106l0.514-2.924h11.708L228.682,31.138z"/>
	<path fill="#FFFFFF" d="M233.909,45.83c-1.528-0.032-2.739-0.533-3.635-1.504c-0.895-0.971-1.383-2.319-1.462-4.046
		c-0.032-0.597-0.008-1.201,0.071-1.814l0.442-2.889c0.23-1.543,0.68-2.912,1.349-4.105c0.668-1.193,1.499-2.081,2.494-2.662
		c0.994-0.581,2.116-0.859,3.365-0.835c1.544,0.032,2.755,0.559,3.635,1.582c0.879,1.022,1.351,2.421,1.414,4.195
		c0.016,0.668-0.02,1.301-0.107,1.897l-0.394,2.662c-0.358,2.387-1.164,4.247-2.417,5.58S235.826,45.87,233.909,45.83z
		 M238.05,35.531c0.096-0.82,0.144-1.452,0.144-1.898c-0.04-1.774-0.68-2.685-1.922-2.733c-0.954-0.04-1.725,0.32-2.309,1.08
		c-0.585,0.76-0.993,1.951-1.224,3.575l-0.418,2.924c-0.096,0.788-0.131,1.404-0.107,1.85c0.04,1.671,0.696,2.534,1.97,2.59
		c0.907,0.032,1.65-0.302,2.231-1.002s0.986-1.846,1.218-3.438L238.05,35.531z"/>
	<path fill="#FFFFFF" d="M251.489,45.592h-3.426l3.02-17.377h3.426L251.489,45.592z"/>
	<path fill="#FFFFFF" d="M266.253,45.592h-3.342l-3.031-11.517l-2.006,11.517h-3.425l3.008-17.377h3.354l3.043,11.529l2.005-11.529
		h3.414L266.253,45.592z"/>
	<path fill="#FFFFFF" d="M277.09,40.937c0.079-0.588-0.006-1.08-0.257-1.474c-0.251-0.394-0.771-0.78-1.563-1.158
		s-1.454-0.77-1.987-1.176c-1.456-1.106-2.124-2.502-2.005-4.189c0.071-0.971,0.376-1.836,0.913-2.596s1.255-1.351,2.154-1.772
		s1.861-0.621,2.888-0.597c1.488,0.032,2.652,0.547,3.491,1.546c0.84,0.999,1.228,2.277,1.164,3.837l-3.413-0.012
		c0.087-1.631-0.435-2.459-1.563-2.483c-0.581-0.016-1.081,0.173-1.498,0.567c-0.418,0.394-0.671,0.901-0.758,1.521
		c-0.12,0.931,0.524,1.727,1.934,2.387c1.408,0.66,2.418,1.404,3.031,2.231c0.684,0.915,0.975,2.029,0.871,3.342
		c-0.119,1.512-0.716,2.72-1.79,3.623s-2.415,1.338-4.022,1.307c-1.615-0.032-2.893-0.581-3.831-1.647
		c-0.938-1.066-1.368-2.431-1.289-4.094l3.438,0.012c-0.063,1.026,0.069,1.76,0.399,2.202s0.85,0.663,1.558,0.663
		c0.621-0.008,1.11-0.201,1.468-0.579C276.779,42.021,277.002,41.533,277.09,40.937z"/>
	<path fill="#FFFFFF" d="M295.445,31.138h-4.165l-2.507,14.453h-3.437l2.506-14.453h-4.105l0.513-2.924h11.709L295.445,31.138z"/>
	<path fill="#FFFFFF" d="M302.272,42.035h-4.619l-1.516,3.557h-3.724l8.283-17.377h3.139l2.279,17.377h-3.544L302.272,42.035z
		 M298.907,39.111h3.127l-0.489-6.159L298.907,39.111z"/>
	<path fill="#FFFFFF" d="M311.772,42.679h5.979l-0.513,2.912h-9.394l3.008-17.377h3.426L311.772,42.679z"/>
	<path fill="#FFFFFF" d="M323.242,42.679h5.979l-0.513,2.912h-9.394l3.008-17.377h3.426L323.242,42.679z"/>
	<path fill="#FFFFFF" d="M225.029,73.897l1.945,2.231l-2.352,1.898l-2.565-2.912c-0.335,0.039-0.625,0.051-0.871,0.035
		c-0.995-0.008-1.87-0.244-2.626-0.71s-1.339-1.144-1.749-2.034c-0.409-0.892-0.63-1.895-0.662-3.008
		c-0.023-0.669,0.008-1.297,0.096-1.887l0.382-2.541c0.366-2.403,1.176-4.291,2.429-5.664c1.253-1.372,2.851-2.039,4.792-1.999
		c1.552,0.032,2.767,0.56,3.646,1.581c0.879,1.023,1.35,2.422,1.414,4.195c0.016,0.613-0.017,1.222-0.096,1.826l-0.418,2.758
		C227.941,70.572,226.819,72.648,225.029,73.897z M225.387,64.863c0.096-0.82,0.144-1.453,0.144-1.898
		c-0.04-1.766-0.688-2.678-1.945-2.732c-1.814-0.072-2.968,1.324-3.461,4.188l-0.454,3.175c-0.095,0.82-0.139,1.452-0.131,1.897
		c0,0.876,0.167,1.548,0.501,2.017c0.334,0.471,0.815,0.717,1.444,0.74c0.883,0.049,1.619-0.28,2.208-0.984s1.011-1.852,1.265-3.443
		L225.387,64.863z"/>
	<path fill="#FFFFFF" d="M243.826,57.546l-2.028,11.935c-0.247,1.806-0.919,3.215-2.018,4.226c-1.098,1.01-2.538,1.499-4.32,1.467
		c-1.671-0.031-2.936-0.557-3.795-1.574c-0.859-1.02-1.189-2.392-0.991-4.118l2.029-11.935h3.438l-2.005,11.946l-0.048,1.026
		c0,1.114,0.553,1.691,1.658,1.73c0.765,0.024,1.361-0.179,1.791-0.608s0.712-1.146,0.847-2.148l2.018-11.946h3.424V57.546z"/>
	<path fill="#FFFFFF" d="M255.142,74.923H251.8l-3.031-11.518l-2.006,11.518h-3.425l3.008-17.377h3.354l3.043,11.529l2.005-11.529
		h3.414L255.142,74.923z"/>
	<path fill="#FFFFFF" d="M266.885,71.366h-4.619l-1.516,3.557h-3.724l8.283-17.377h3.139l2.279,17.377h-3.544L266.885,71.366z
		 M263.52,68.443h3.127l-0.489-6.158L263.52,68.443z"/>
	<path fill="#FFFFFF" d="M279.882,57.546l1.015,12.496l5.335-12.496h4.512l-3.02,17.377h-3.438l0.836-4.81l1.504-6.862
		l-5.323,11.672h-2.327l-1.313-12.066l-0.99,7.483l-0.788,4.583h-3.425l3.008-17.377C275.468,57.546,279.882,57.546,279.882,57.546z
		"/>
	<path fill="#FFFFFF" d="M294.121,74.923h-3.426l3.02-17.377h3.426L294.121,74.923z"/>
</g>
<polygon fill="#FFFFFF" points="363.021,10 365.247,0 0,0 0,2 362.753,2 340.049,104 0,104 0,106 341.653,106 362.576,12 
	372.486,12 348.948,114 0,114 0,116 350.539,116 375,10 "/>
<g>
	<path fill="#FFFFFF" d="M206.055,33.589l-22.46,44.834h-10.531l22.356-42.787h-19.662l1.294-8.152H207L206.055,33.589z"/>
</g>
</svg>
