<?xml version="1.0" encoding="utf-8"?>
<!-- Generator: Adobe Illustrator 21.0.0, SVG Export Plug-In . SVG Version: 6.00 Build 0)  -->
<svg version="1.1" id="Layer_1" xmlns="http://www.w3.org/2000/svg" xmlns:xlink="http://www.w3.org/1999/xlink" x="0px" y="0px"
	 viewBox="0 0 1000 1000" enable-background="new 0 0 1000 1000" xml:space="preserve">
<g id="Layer_1_1_">
	<g>
		<path fill="#4909AB" d="M857.307,140.081v599.03c0,37.219-16.342,70.614-42.241,93.441
			c-21.926,19.303-50.712,31.034-82.233,31.034H267.167c-68.74,0-124.474-55.734-124.474-124.475v-599.03H857.307"/>
	</g>
	<g>
		<rect x="170.726" y="140.248" fill="#E2E2ED" width="658.534" height="279.752"/>
	</g>
	<g>
		<path fill="#100226" d="M170.726,418.581v320.528c0,53.18,43.265,96.444,96.444,96.444h465.646
			c53.179,0,96.443-43.265,96.443-96.444V418.581H170.726"/>
	</g>
	<g>
		<rect x="104.167" y="136.415" fill="#FFFFFF" width="791.667" height="4.167"/>
	</g>
	<g>
		<g>
			<g>
				<path fill="#4909AB" d="M702.6,674.999c17.6,0,32,14.4,32,32l0,0c0,17.6-14.4,32-32,32H297.4c-17.6,0-32-14.4-32-32l0,0
					c0-17.6,14.4-32,32-32H702.6 M702.6,666.999H297.4c-22.056,0-40,17.944-40,40s17.944,40,40,40h405.2c22.056,0,40-17.944,40-40
					S724.657,666.999,702.6,666.999L702.6,666.999z"/>
			</g>
		</g>
		<g>
			<path fill="#39CFC0" d="M332.6,738.999h-35.2c-17.6,0-32-14.4-32-32l0,0c0-17.6,14.4-32,32-32h35.2c17.6,0,32,14.4,32,32l0,0
				C364.6,724.599,350.2,738.999,332.6,738.999z"/>
		</g>
	</g>
	<g enable-background="new    ">
		<path fill="#FFFFFF" d="M395.501,714.305l3.076-17.773l4.382,0.012c1.294,0.033,2.387,0.371,3.277,1.014
			c0.892,0.643,1.53,1.535,1.917,2.674c0.386,1.139,0.49,2.412,0.311,3.82l-0.391,2.6c-0.358,2.393-1.223,4.266-2.594,5.615
			c-1.371,1.352-3.094,2.031-5.169,2.039H395.501z M401.568,699.521l-2.051,11.805l0.867,0.025c1.212,0,2.152-0.352,2.82-1.057
			c0.667-0.703,1.115-1.838,1.343-3.4l0.415-2.881c0.114-0.936,0.159-1.619,0.134-2.051c-0.041-0.813-0.249-1.416-0.623-1.807
			c-0.375-0.391-0.928-0.598-1.66-0.621L401.568,699.521z"/>
		<path fill="#FFFFFF" d="M417.46,714.549c-1.563-0.031-2.802-0.545-3.717-1.537c-0.916-0.994-1.415-2.373-1.496-4.139
			c-0.033-0.611-0.008-1.229,0.073-1.855l0.452-2.955c0.236-1.578,0.696-2.979,1.379-4.199s1.534-2.127,2.551-2.721
			c1.017-0.594,2.165-0.879,3.442-0.855c1.579,0.033,2.818,0.572,3.717,1.617c0.899,1.047,1.381,2.477,1.447,4.291
			c0.016,0.684-0.021,1.33-0.11,1.941l-0.403,2.723c-0.366,2.441-1.19,4.344-2.472,5.707
			C421.043,713.93,419.421,714.59,417.46,714.549z M421.696,704.014c0.098-0.838,0.146-1.484,0.146-1.939
			c-0.041-1.814-0.696-2.748-1.965-2.797c-0.977-0.039-1.764,0.328-2.362,1.105c-0.598,0.777-1.015,1.996-1.251,3.656l-0.427,2.99
			c-0.098,0.807-0.134,1.438-0.11,1.893c0.041,1.709,0.712,2.592,2.014,2.648c0.928,0.033,1.688-0.309,2.283-1.025
			c0.594-0.715,1.009-1.887,1.245-3.516L421.696,704.014z"/>
		<path fill="#FFFFFF" d="M440.419,707.652l3.369-11.121h3.516l-5.835,17.773h-3.516l-0.366-10.424l-3.613,10.424h-3.528
			l-0.305-17.773h3.442l-0.134,11.084l3.748-11.084h2.954L440.419,707.652z"/>
		<path fill="#FFFFFF" d="M460.437,714.305h-3.418l-3.101-11.779l-2.051,11.779h-3.503l3.076-17.773h3.43l3.113,11.793l2.051-11.793
			h3.491L460.437,714.305z"/>
		<path fill="#FFFFFF" d="M469.346,711.326h6.116l-0.525,2.979h-9.607l3.076-17.773h3.503L469.346,711.326z"/>
		<path fill="#FFFFFF" d="M484.42,714.549c-1.563-0.031-2.802-0.545-3.717-1.537c-0.916-0.994-1.415-2.373-1.496-4.139
			c-0.033-0.611-0.008-1.229,0.073-1.855l0.452-2.955c0.236-1.578,0.696-2.979,1.379-4.199s1.534-2.127,2.551-2.721
			c1.017-0.594,2.165-0.879,3.442-0.855c1.579,0.033,2.818,0.572,3.717,1.617c0.899,1.047,1.381,2.477,1.447,4.291
			c0.016,0.684-0.021,1.33-0.11,1.941l-0.403,2.723c-0.366,2.441-1.19,4.344-2.472,5.707
			C488.003,713.93,486.381,714.59,484.42,714.549z M488.656,704.014c0.098-0.838,0.146-1.484,0.146-1.939
			c-0.041-1.814-0.696-2.748-1.965-2.797c-0.977-0.039-1.764,0.328-2.362,1.105c-0.598,0.777-1.015,1.996-1.251,3.656l-0.427,2.99
			c-0.098,0.807-0.134,1.438-0.11,1.893c0.041,1.709,0.712,2.592,2.014,2.648c0.928,0.033,1.688-0.309,2.283-1.025
			c0.594-0.715,1.009-1.887,1.245-3.516L488.656,704.014z"/>
		<path fill="#FFFFFF" d="M503.681,710.668h-4.724l-1.55,3.637h-3.809l8.472-17.773h3.21l2.332,17.773h-3.626L503.681,710.668z
			 M500.238,707.676h3.198l-0.501-6.299L500.238,707.676z"/>
		<path fill="#FFFFFF" d="M511.381,714.305l3.076-17.773l4.383,0.012c1.294,0.033,2.387,0.371,3.277,1.014
			c0.892,0.643,1.53,1.535,1.917,2.674c0.386,1.139,0.489,2.412,0.311,3.82l-0.391,2.6c-0.358,2.393-1.223,4.266-2.594,5.615
			c-1.371,1.352-3.095,2.031-5.17,2.039H511.381z M517.448,699.521l-2.051,11.805l0.866,0.025c1.213,0,2.152-0.352,2.82-1.057
			c0.667-0.703,1.114-1.838,1.343-3.4l0.415-2.881c0.113-0.936,0.158-1.619,0.134-2.051c-0.041-0.813-0.248-1.416-0.622-1.807
			c-0.375-0.391-0.928-0.598-1.66-0.621L517.448,699.521z"/>
		<path fill="#FFFFFF" d="M530.85,714.305h-3.504l3.089-17.773h3.503L530.85,714.305z"/>
		<path fill="#FFFFFF" d="M547.949,714.305h-3.418l-3.101-11.779l-2.051,11.779h-3.503l3.076-17.773h3.43l3.113,11.793l2.051-11.793
			h3.491L547.949,714.305z"/>
		<path fill="#FFFFFF" d="M565.062,712.291c-0.659,0.732-1.518,1.297-2.575,1.691c-1.059,0.395-2.193,0.584-3.406,0.566
			c-1.066-0.008-1.989-0.242-2.771-0.701s-1.386-1.127-1.813-2.002c-0.427-0.875-0.657-1.883-0.689-3.021
			c-0.024-0.619,0.004-1.25,0.086-1.893l0.439-2.941c0.374-2.475,1.18-4.387,2.417-5.738c1.236-1.35,2.848-2.006,4.834-1.965
			c1.692,0.033,2.968,0.543,3.826,1.533c0.859,0.988,1.296,2.451,1.313,4.387l-3.405-0.012l-0.037-0.977
			c-0.105-1.27-0.729-1.924-1.867-1.965c-1.685-0.064-2.792,1.045-3.32,3.332l-0.184,0.916l-0.488,3.43
			c-0.105,0.781-0.146,1.449-0.122,2.002c0.041,0.912,0.246,1.574,0.616,1.984c0.371,0.41,0.894,0.625,1.569,0.641
			c0.635,0.016,1.343-0.191,2.124-0.623l0.622-3.271h-2.453l0.476-2.709h5.933L565.062,712.291z"/>
		<path fill="#FFFFFF" d="M569.564,712.621c0-0.57,0.187-1.045,0.562-1.422c0.374-0.379,0.842-0.568,1.403-0.568
			s1.025,0.178,1.392,0.531s0.55,0.791,0.55,1.313c0,0.586-0.195,1.061-0.586,1.428c-0.391,0.365-0.854,0.549-1.392,0.549
			c-0.57,0-1.03-0.174-1.38-0.525C569.764,713.576,569.58,713.141,569.564,712.621z"/>
		<path fill="#FFFFFF" d="M578.742,712.621c0-0.57,0.187-1.045,0.562-1.422c0.374-0.379,0.842-0.568,1.403-0.568
			s1.025,0.178,1.392,0.531s0.55,0.791,0.55,1.313c0,0.586-0.195,1.061-0.586,1.428c-0.391,0.365-0.854,0.549-1.392,0.549
			c-0.57,0-1.03-0.174-1.38-0.525C578.941,713.576,578.758,713.141,578.742,712.621z"/>
		<path fill="#FFFFFF" d="M587.92,712.621c0-0.57,0.187-1.045,0.562-1.422c0.374-0.379,0.842-0.568,1.403-0.568
			s1.025,0.178,1.392,0.531s0.55,0.791,0.55,1.313c0,0.586-0.195,1.061-0.586,1.428c-0.391,0.365-0.854,0.549-1.392,0.549
			c-0.57,0-1.03-0.174-1.38-0.525C588.119,713.576,587.936,713.141,587.92,712.621z"/>
	</g>
</g>
<g id="Layer_2">
	<g>
		<g>
			<path fill="#FFFFFF" d="M502.137,517.094c-0.002-0.149-0.005-0.304-0.007-0.454c-0.001-0.062-0.002-0.121-0.003-0.183l0,0
				c-0.047-3.051-0.11-6.461-0.19-10.237c0-0.191-0.069-0.355-0.206-0.493c-0.138-0.137-0.308-0.212-0.511-0.224
				c-2.56-0.108-4.772-0.161-6.638-0.161c-1.901,0-3.994,0.053-6.279,0.161l0.176,13.361l0,0l0.075,5.726l-1.909-4.721l0,0
				l-5.518-13.648c-0.179-0.466-0.443-0.706-0.789-0.717c-2.715-0.108-4.784-0.161-6.207-0.161c-1.674,0-3.648,0.053-5.92,0.161
				c-0.191,7.654-0.287,14.83-0.287,21.527c0,4.879,0.096,11.815,0.287,20.809c0,0.192,0.069,0.356,0.206,0.493
				c0.137,0.138,0.308,0.212,0.511,0.225c2.774,0.108,5.106,0.162,6.996,0.162c1.674,0,3.648-0.054,5.92-0.162l-0.251-19.087
				l7.427,18.37c0.167,0.466,0.431,0.706,0.789,0.718c2.332,0.108,4.521,0.162,6.566,0.162c1.722,0,3.576-0.054,5.561-0.162
				c0.191-7.654,0.287-14.829,0.287-21.527C502.224,524.344,502.195,521.025,502.137,517.094L502.137,517.094z"/>
		</g>
		<g>
			<path fill="#FFFFFF" d="M589.42,519.178c0-0.003,0-0.007,0-0.01c-0.003-0.244-0.006-0.484-0.009-0.734l0,0
				c-0.048-3.532-0.12-7.599-0.218-12.214c0-0.191-0.069-0.355-0.206-0.493c-0.138-0.137-0.308-0.212-0.511-0.224
				c-2.416-0.108-4.629-0.161-6.638-0.161c-1.865,0-3.546,0.06-5.041,0.179c-0.251,0.024-0.544,0.257-0.879,0.699l-5.042,10.285l0,0
				l-3.963,8.084l-4.286-8.742l0,0l-4.719-9.627c-0.179-0.466-0.442-0.706-0.789-0.717c-2.129-0.108-4.197-0.161-6.207-0.161
				c-1.675,0-3.648,0.053-5.92,0.161c-0.09,3.598-0.159,7.09-0.207,10.476h0.002c-0.054,3.815-0.083,7.505-0.083,11.051
				c0,4.879,0.095,11.815,0.287,20.809c0,0.192,0.072,0.359,0.215,0.502s0.31,0.215,0.502,0.215c2.93,0.108,5.262,0.162,6.996,0.162
				c1.674,0,3.648-0.054,5.92-0.162l-0.252-19.482l7.786,15.894l0.717,0.143l0.789-0.143l8.18-16.701
				c0.012,1.997,0.042,4.087,0.09,6.27c0.048,2.182,0.108,4.61,0.179,7.283c0.072,2.673,0.125,4.68,0.162,6.019
				c0,0.192,0.072,0.359,0.215,0.502s0.311,0.215,0.502,0.215c2.93,0.108,5.143,0.162,6.638,0.162c1.65,0,3.504-0.054,5.561-0.162
				c0.192-7.654,0.287-14.829,0.287-21.527C589.479,524.832,589.459,522.209,589.42,519.178L589.42,519.178z"/>
		</g>
		<g>
			<path fill="#FFFFFF" d="M608.566,505.409c-2.93-0.108-5.381-0.161-7.354-0.161c-1.914,0-4.007,0.053-6.279,0.161
				c-0.191,7.654-0.191,0.724,0,9.717c0,0.191,0.072,0.359,0.215,0.502c0.143,0.144,0.31,0.215,0.502,0.215
				c2.93,0.108,5.381,0.162,7.355,0.162c1.914,0,4.006-0.054,6.279-0.162c0.191-7.654,0.191-0.723,0-9.716
				c0-0.192-0.072-0.359-0.215-0.502C608.925,505.48,608.757,505.409,608.566,505.409z"/>
		</g>
		<g>
			<circle fill="#FFFFFF" cx="430.855" cy="553.53" r="3.47"/>
		</g>
		<g>
			<path fill="#FFFFFF" d="M425.175,543.749c-1.28-2.561,0.414-9.068,0.414-9.068l-0.003,0.003c0.079-0.332,0.151-0.661,0.204-0.981
				c0.372-2.227,0.517-4.721,0.517-7.41c0-3.157-0.272-5.926-0.816-8.306c-0.544-2.38-1.337-4.395-2.377-6.046
				c-1.04-1.65-2.371-2.989-3.991-4.018c-1.621-1.029-3.46-1.773-5.516-2.234c-2.057-0.46-4.425-0.69-7.104-0.69
				c-5.107,0.251-9.062,2.206-11.866,5.866c-1.297,1.692-2.293,3.701-2.991,6.027l0.006,0.014c-0.81,2.703-1.222,5.827-1.222,9.387
				c0,4.114,0.418,7.558,1.256,10.333c0.837,2.775,2.054,4.948,3.651,6.52c1.433,1.412,6.07,4.371,13.033,4.384
				c1.275,0.002,2.471-0.045,3.608-0.169l-0.002,0.002c0,0,0.491-0.03,1.249-0.038c0.01,0,0.02,0,0.03,0
				c0.112-0.001,0.231-0.002,0.354-0.002c0.044,0,0.09,0,0.135,0.001c0.084,0,0.17,0.001,0.258,0.002
				c1.779,0.021,4.328,0.189,5.955,0.905c2.708,1.192,5.318,3.546,6.993,1.97C428.622,548.624,426.455,546.309,425.175,543.749z
				 M405.866,532.823c-0.077-0.431-0.155-0.948-0.233-1.552c-0.019-0.146-0.036-0.299-0.052-0.458s-0.03-0.325-0.044-0.497l0,0
				c-0.028-0.367-0.05-0.763-0.065-1.189c-0.03-0.825-0.045-1.77-0.045-2.834c0-1.937,0.051-3.489,0.152-4.655
				c0.102-1.166,0.278-2.048,0.529-2.646c0.251-0.598,0.532-0.987,0.843-1.166c0.311-0.18,0.735-0.269,1.274-0.269
				c0.43,0,0.789,0.053,1.076,0.161s0.568,0.332,0.843,0.673s0.49,0.825,0.646,1.453c0.155,0.628,0.281,1.477,0.377,2.548
				c0.096,1.07,0.144,2.371,0.144,3.902c0,1.22-0.01,2.282-0.063,3.184c-0.225,3.875,2.5,5.636,2.41,6.937
				c-0.003,0.043-0.009,0.086-0.018,0.128c0,0.001-0.001,0.003-0.001,0.004c-0.009,0.042-0.022,0.083-0.037,0.123
				c-0.003,0.008-0.008,0.016-0.011,0.024c-0.014,0.034-0.03,0.068-0.049,0.102c-0.025,0.042-0.053,0.084-0.085,0.125
				C412.43,538.217,406.438,536.017,405.866,532.823z"/>
		</g>
		<g>
			<path fill="#FFFFFF" d="M463.902,509.478c-0.021-1.056-0.043-2.143-0.067-3.259c0-0.191-0.072-0.359-0.215-0.502
				s-0.311-0.215-0.502-0.215c-2.93-0.108-5.382-0.161-7.355-0.161c-1.901,0-3.995,0.053-6.279,0.161
				c-0.093,3.702-0.162,7.483-0.21,11.339c0,0,0,0,0,0.001c-0.001,0.061-0.001,0.122-0.002,0.183
				c-0.002,0.199-0.006,0.395-0.008,0.594l0.001-0.001c-0.045,3.869-0.069,7.81-0.069,11.832c0,2.105-0.099,3.693-0.296,4.763
				s-0.475,1.767-0.834,2.09c-0.074,0.067-0.16,0.122-0.249,0.175c-0.084,0.047-0.173,0.089-0.268,0.126
				c-0.299,0.118-0.654,0.184-1.08,0.184c-0.526,0-0.951-0.084-1.274-0.252c-0.323-0.167-0.616-0.505-0.879-1.013
				c-0.263-0.509-0.448-1.253-0.556-2.234c-0.108-0.98-0.161-2.254-0.161-3.821c0-6.506-0.096-14.255-0.287-23.248
				c0-0.191-0.072-0.359-0.215-0.502s-0.311-0.215-0.502-0.215c-2.93-0.108-5.382-0.161-7.355-0.161
				c-1.914,0-4.007,0.053-6.279,0.161c-0.191,7.654-0.287,14.919-0.287,21.795c0,2.249,0.099,4.29,0.296,6.126
				s0.508,3.477,0.933,4.924c0.424,1.447,0.93,2.724,1.516,3.83s1.301,2.063,2.144,2.87c0.843,0.807,1.749,1.483,2.718,2.027
				c0.969,0.545,2.087,0.978,3.355,1.301c1.267,0.322,2.577,0.552,3.928,0.69s2.87,0.206,4.556,0.206
				c2.069-0.108,3.923-0.436,5.561-0.986c0.599-0.201,1.174-0.444,1.731-0.72c0.001,0.001,0.002,0.002,0.003,0.003
				c0.037-0.018,0.072-0.04,0.109-0.058c0.155-0.079,0.307-0.161,0.459-0.245c0.076-0.042,0.152-0.084,0.228-0.128
				c0.047-0.028,0.096-0.052,0.143-0.081l-0.004-0.005c0.618-0.371,1.21-0.787,1.771-1.259c1.321-1.112,2.419-2.508,3.292-4.189
				c0.873-1.68,1.543-3.716,2.009-6.108c0.466-2.391,0.7-5.124,0.7-8.198C464.122,522.869,464.048,516.923,463.902,509.478
				L463.902,509.478z"/>
		</g>
		<g>
			<path fill="#FFFFFF" d="M539.833,535.343c-0.891-4.647-1.967-9.995-3.229-16.047c-1.262-6.051-2.156-10.41-2.682-13.077
				c-0.036-0.203-0.138-0.374-0.305-0.511s-0.347-0.206-0.538-0.206c-2.918-0.108-6.327-0.161-10.225-0.161
				c-2.196,0-4.145,0.015-5.847,0.044v0.001c-1.54,0.027-2.885,0.065-4.019,0.116c-0.395,1.949-1.238,6.049-2.53,12.297
				c-1.291,6.249-2.344,11.481-3.157,15.696c-0.813,4.216-1.537,8.291-2.171,12.226c-0.227,1.303-0.341,2.051-0.341,2.242
				c0,0.168,0.054,0.309,0.162,0.422c0.108,0.114,0.251,0.171,0.43,0.171c2.906,0.108,5.352,0.162,7.337,0.162
				c1.662,0,3.642-0.054,5.938-0.162c0.538-2.703,0.998-5.334,1.381-7.894h6.656c0.334,2.034,0.771,4.425,1.309,7.176
				c0.036,0.192,0.135,0.356,0.296,0.493c0.162,0.138,0.344,0.212,0.547,0.225c1.638,0.108,3.983,0.162,7.032,0.162
				c0.389,0,0.787-0.003,1.193-0.008c1.571-0.018,3.251-0.068,5.05-0.153C541.486,544.394,540.724,539.989,539.833,535.343z
				 M521.525,528.863L521.525,528.863c0.156-1.388,0.348-3.13,0.576-5.234c0.395-3.641,0.712-6.437,0.951-8.386
				c0.215,1.507,0.568,4.075,1.058,7.705c0.455,3.371,0.822,6.013,1.102,7.945c0.022,0.151,0.043,0.301,0.064,0.441h-4.036
				C521.316,530.703,521.41,529.877,521.525,528.863z"/>
		</g>
		<g>
			<path fill="#FFFFFF" d="M609.068,518.948c-0.143-0.143-0.311-0.215-0.502-0.215c-2.93-0.108-5.381-0.162-7.354-0.162
				c-0.923,0-1.89,0.013-2.896,0.038l0,0c-0.007,0-0.015,0-0.022,0.001c-0.262,0.007-0.525,0.013-0.792,0.022v0.003
				c-0.832,0.025-1.681,0.056-2.568,0.098c-0.191,7.654-0.287,1.599-0.287,8.296c0,4.879,0.096,11.815,0.287,20.809
				c0,0.192,0.072,0.359,0.215,0.502s0.31,0.215,0.502,0.215c2.93,0.108,5.381,0.162,7.355,0.162c1.914,0,4.006-0.054,6.279-0.162
				c0.053-2.116,0.097-4.191,0.135-6.234h0.001c0.1-5.348,0.15-10.446,0.15-15.293c0-4.88-0.096,1.415-0.287-7.579
				C609.283,519.259,609.212,519.091,609.068,518.948z"/>
		</g>
	</g>
	<g enable-background="new    ">
		<path fill="#A6A4AA" d="M241.189,591.455h-5.794l-3.486,20.104h-4.781l3.486-20.104h-5.711l0.714-4.067h16.286L241.189,591.455z"
			/>
		<path fill="#A6A4AA" d="M257.043,611.56h-4.748l1.793-10.343h-6.956l-1.793,10.343h-4.765l4.184-24.172h4.765l-1.693,9.778h6.956
			l1.71-9.778h4.748L257.043,611.56z"/>
		<path fill="#A6A4AA" d="M274.923,601.101h-7.371l-1.112,6.408h8.732l-0.714,4.051h-13.48l4.184-24.172h13.464l-0.714,4.067h-8.683
			l-0.996,5.711h7.388L274.923,601.101z"/>
		<path fill="#A6A4AA" d="M285.1,611.56l4.184-24.172l6.69,0.017c2.324,0,4.095,0.562,5.313,1.685
			c1.217,1.124,1.754,2.721,1.61,4.79c-0.188,2.457-1.472,4.239-3.852,5.346c0.852,0.354,1.478,0.972,1.876,1.851
			c0.398,0.881,0.553,1.962,0.465,3.246c-0.166,2.247-0.966,4.015-2.399,5.305c-1.434,1.289-3.356,1.934-5.769,1.934H285.1z
			 M291.691,601.051l-1.129,6.458l2.789,0.033c1.051-0.022,1.878-0.406,2.482-1.154c0.603-0.746,0.916-1.812,0.938-3.195
			c0-1.328-0.559-2.036-1.677-2.125L291.691,601.051z M292.289,597.498l2.258,0.033c1.206-0.022,2.119-0.432,2.739-1.229
			c0.62-0.797,0.885-1.815,0.797-3.055c-0.111-1.118-0.775-1.71-1.992-1.776l-2.739-0.017L292.289,597.498z"/>
		<path fill="#A6A4AA" d="M317.722,601.101h-7.371l-1.112,6.408h8.732l-0.714,4.051h-13.48l4.184-24.172h13.464l-0.714,4.067h-8.683
			l-0.996,5.711h7.388L317.722,601.101z"/>
		<path fill="#A6A4AA" d="M331.269,605.085c0.11-0.819-0.008-1.502-0.357-2.051c-0.349-0.547-1.074-1.084-2.175-1.609
			c-1.102-0.526-2.023-1.071-2.764-1.636c-2.025-1.538-2.955-3.48-2.789-5.827c0.1-1.351,0.523-2.554,1.27-3.611
			c0.747-1.057,1.746-1.878,2.997-2.465c1.25-0.587,2.59-0.863,4.018-0.83c2.069,0.044,3.688,0.761,4.856,2.15
			c1.167,1.389,1.707,3.168,1.619,5.337l-4.748-0.017c0.122-2.269-0.604-3.42-2.175-3.453c-0.808-0.022-1.502,0.24-2.083,0.789
			c-0.581,0.547-0.933,1.253-1.054,2.116c-0.166,1.295,0.73,2.401,2.689,3.32s3.364,1.953,4.217,3.104
			c0.952,1.272,1.355,2.822,1.212,4.648c-0.166,2.103-0.996,3.782-2.49,5.039c-1.494,1.256-3.359,1.861-5.595,1.817
			c-2.247-0.044-4.023-0.808-5.329-2.291c-1.306-1.483-1.904-3.381-1.793-5.694l4.781,0.017c-0.089,1.428,0.097,2.448,0.556,3.063
			c0.459,0.613,1.181,0.921,2.167,0.921c0.863-0.011,1.544-0.279,2.042-0.806C330.837,606.593,331.147,605.915,331.269,605.085z"/>
		<path fill="#A6A4AA" d="M356.802,591.455h-5.794l-3.486,20.104h-4.781l3.486-20.104h-5.711l0.714-4.067h16.286L356.802,591.455z"
			/>
		<path fill="#A6A4AA" d="M376.575,610.132l2.706,3.104l-3.271,2.64l-3.569-4.051c-0.465,0.056-0.869,0.072-1.212,0.05
			c-1.384-0.011-2.601-0.341-3.652-0.987c-1.052-0.648-1.862-1.592-2.432-2.831c-0.57-1.239-0.877-2.634-0.921-4.184
			c-0.033-0.93,0.011-1.804,0.133-2.623l0.531-3.536c0.509-3.343,1.635-5.969,3.378-7.877c1.743-1.91,3.965-2.837,6.666-2.781
			c2.158,0.044,3.849,0.777,5.072,2.199c1.223,1.423,1.878,3.368,1.967,5.836c0.022,0.853-0.022,1.699-0.133,2.54l-0.581,3.835
			C380.625,605.506,379.065,608.395,376.575,610.132z M377.073,597.564c0.133-1.14,0.199-2.02,0.199-2.64
			c-0.056-2.457-0.958-3.725-2.706-3.802c-2.523-0.1-4.128,1.843-4.814,5.827l-0.631,4.416c-0.133,1.14-0.194,2.02-0.183,2.64
			c0,1.218,0.232,2.152,0.697,2.806s1.134,0.996,2.009,1.029c1.229,0.066,2.252-0.391,3.071-1.369c0.819-0.98,1.405-2.576,1.76-4.79
			L377.073,597.564z"/>
		<path fill="#A6A4AA" d="M402.722,587.388l-2.822,16.602c-0.343,2.513-1.278,4.472-2.806,5.877s-3.531,2.086-6.01,2.042
			c-2.324-0.044-4.084-0.774-5.279-2.191s-1.655-3.326-1.378-5.728l2.822-16.602h4.781l-2.789,16.618l-0.066,1.428
			c0,1.55,0.769,2.352,2.308,2.407c1.063,0.033,1.893-0.249,2.49-0.847s0.99-1.594,1.179-2.988l2.806-16.618H402.722z"/>
		<path fill="#A6A4AA" d="M407.005,611.56h-4.765l4.2-24.172h4.765L407.005,611.56z"/>
		<path fill="#A6A4AA" d="M416.883,607.509h9.546l-0.714,4.051h-15.224l0.548-3.154l12.385-16.95h-9.546l0.714-4.067h15.141
			l-0.531,3.088L416.883,607.509z"/>
		<path fill="#A6A4AA" d="M448.642,606.612h-6.425l-2.108,4.947h-5.18l11.521-24.172h4.366l3.171,24.172h-4.931L448.642,606.612z
			 M443.96,602.545h4.35l-0.681-8.566L443.96,602.545z"/>
		<path fill="#A6A4AA" d="M462.637,603.06l-1.478,8.5h-4.765l4.184-24.172l7.753,0.017c2.114,0.066,3.771,0.821,4.973,2.267
			c1.2,1.443,1.707,3.306,1.519,5.586c-0.222,2.368-1.118,4.264-2.689,5.686c-1.571,1.423-3.575,2.134-6.01,2.134L462.637,603.06z
			 M463.334,598.992l3.071,0.033c1.185-0.022,2.103-0.479,2.756-1.37c0.653-0.891,0.963-2.089,0.93-3.594
			c-0.022-0.764-0.205-1.372-0.548-1.826s-0.819-0.703-1.428-0.747l-3.47-0.033L463.334,598.992z"/>
		<path fill="#A6A4AA" d="M481.563,603.06l-1.478,8.5h-4.765l4.184-24.172l7.753,0.017c2.114,0.066,3.771,0.821,4.973,2.267
			c1.2,1.443,1.707,3.306,1.519,5.586c-0.222,2.368-1.118,4.264-2.689,5.686c-1.571,1.423-3.575,2.134-6.01,2.134L481.563,603.06z
			 M482.26,598.992l3.071,0.033c1.185-0.022,2.103-0.479,2.756-1.37c0.653-0.891,0.963-2.089,0.93-3.594
			c-0.022-0.764-0.205-1.372-0.548-1.826s-0.819-0.703-1.428-0.747l-3.47-0.033L482.26,598.992z"/>
		<path fill="#A6A4AA" d="M518.801,602.512l4.582-15.124h4.781l-7.936,24.172h-4.781l-0.498-14.178l-4.914,14.178h-4.798
			l-0.415-24.172h4.682l-0.183,15.074l5.097-15.074h4.018L518.801,602.512z"/>
		<path fill="#A6A4AA" d="M531.85,611.56h-4.765l4.2-24.172h4.765L531.85,611.56z"/>
		<path fill="#A6A4AA" d="M554.179,591.455h-5.794l-3.486,20.104h-4.781l3.486-20.104h-5.711l0.714-4.067h16.286L554.179,591.455z"
			/>
		<path fill="#A6A4AA" d="M570.033,611.56h-4.748l1.793-10.343h-6.956l-1.793,10.343h-4.765l4.184-24.172h4.765l-1.693,9.778h6.956
			l1.71-9.778h4.748L570.033,611.56z"/>
		<path fill="#A6A4AA" d="M591.433,611.56h-4.599l3.188-18.361l-4.781,1.76l0.73-4.101l8.981-3.503h0.564L591.433,611.56z"/>
		<path fill="#A6A4AA" d="M611.819,607.509h8.317l-0.714,4.051h-13.065l4.184-24.172h4.765L611.819,607.509z"/>
		<path fill="#A6A4AA" d="M634.729,606.612h-6.425l-2.108,4.947h-5.18l11.521-24.172h4.366l3.171,24.172h-4.931L634.729,606.612z
			 M630.048,602.545h4.35l-0.681-8.566L630.048,602.545z"/>
		<path fill="#A6A4AA" d="M650.833,602.296l-2.424,2.557l-1.162,6.707h-4.765l4.184-24.172h4.765l-1.793,10.276l1.926-2.557
			l5.578-7.72h6.093l-8.749,10.841l4.416,13.331h-5.429L650.833,602.296z"/>
		<path fill="#A6A4AA" d="M677.362,611.56h-4.748l1.793-10.343h-6.956l-1.793,10.343h-4.765l4.184-24.172h4.765l-1.693,9.778h6.956
			l1.71-9.778h4.748L677.362,611.56z"/>
		<path fill="#A6A4AA" d="M691.772,598.013h4.565l-0.764,4.366h-4.549l-1.179,6.757h-4.35l1.179-6.757h-4.648l0.764-4.366h4.632
			l1.129-6.475h4.35L691.772,598.013z"/>
		<path fill="#A6A4AA" d="M724.594,587.388l-2.822,16.602c-0.343,2.513-1.278,4.472-2.806,5.877s-3.53,2.086-6.01,2.042
			c-2.324-0.044-4.084-0.774-5.279-2.191s-1.654-3.326-1.378-5.728l2.822-16.602h4.781l-2.789,16.618l-0.066,1.428
			c0,1.55,0.77,2.352,2.308,2.407c1.063,0.033,1.893-0.249,2.49-0.847s0.99-1.594,1.179-2.988l2.806-16.618H724.594z"/>
		<path fill="#A6A4AA" d="M735.053,605.085c0.11-0.819-0.008-1.502-0.357-2.051c-0.348-0.547-1.073-1.084-2.174-1.609
			c-1.102-0.526-2.023-1.071-2.765-1.636c-2.025-1.538-2.955-3.48-2.789-5.827c0.1-1.351,0.522-2.554,1.271-3.611
			c0.746-1.057,1.745-1.878,2.996-2.465s2.59-0.863,4.018-0.83c2.069,0.044,3.688,0.761,4.855,2.15
			c1.168,1.389,1.708,3.168,1.619,5.337l-4.748-0.017c0.122-2.269-0.604-3.42-2.175-3.453c-0.808-0.022-1.503,0.24-2.083,0.789
			c-0.582,0.547-0.933,1.253-1.055,2.116c-0.166,1.295,0.73,2.401,2.689,3.32s3.364,1.953,4.217,3.104
			c0.952,1.272,1.355,2.822,1.212,4.648c-0.166,2.103-0.996,3.782-2.49,5.039c-1.494,1.256-3.359,1.861-5.595,1.817
			c-2.247-0.044-4.023-0.808-5.329-2.291s-1.903-3.381-1.793-5.694l4.781,0.017c-0.089,1.428,0.097,2.448,0.556,3.063
			c0.46,0.613,1.182,0.921,2.167,0.921c0.863-0.011,1.544-0.279,2.042-0.806C734.621,606.593,734.931,605.915,735.053,605.085z"/>
		<path fill="#A6A4AA" d="M755.838,601.101h-7.371l-1.112,6.408h8.732l-0.714,4.051h-13.48l4.184-24.172h13.464l-0.714,4.067h-8.683
			l-0.996,5.711h7.388L755.838,601.101z"/>
		<path fill="#A6A4AA" d="M766.978,602.728h-2.424l-1.527,8.832h-4.765l4.184-24.172l7.305,0.017
			c2.158,0.066,3.813,0.73,4.964,1.992s1.638,2.982,1.461,5.163c-0.276,3.31-1.782,5.611-4.516,6.906l2.424,9.828v0.266h-5.113
			L766.978,602.728z M765.251,598.66l2.507,0.033c1.151-0.022,2.059-0.479,2.723-1.37c0.664-0.891,0.99-2.072,0.979-3.544
			c-0.044-1.45-0.681-2.219-1.909-2.308l-3.038-0.017L765.251,598.66z"/>
	</g>
</g>
</svg>
