<?xml version="1.0" encoding="utf-8"?>
<!-- Generator: Adobe Illustrator 21.0.0, SVG Export Plug-In . SVG Version: 6.00 Build 0)  -->
<svg version="1.1"
	 id="Layer_1" xmlns:cc="http://creativecommons.org/ns#" xmlns:dc="http://purl.org/dc/elements/1.1/" xmlns:inkscape="http://www.inkscape.org/namespaces/inkscape" xmlns:rdf="http://www.w3.org/1999/02/22-rdf-syntax-ns#" xmlns:sodipodi="http://sodipodi.sourceforge.net/DTD/sodipodi-0.dtd" xmlns:svg="http://www.w3.org/2000/svg"
	 xmlns="http://www.w3.org/2000/svg" xmlns:xlink="http://www.w3.org/1999/xlink" x="0px" y="0px" viewBox="0 0 512 512"
	 style="enable-background:new 0 0 512 512;" xml:space="preserve">
<style type="text/css">
	.st0{fill:#100226;}
</style>
<g id="g6625" transform="translate(-141.91412,-143.63566)">
	<path id="path5-5" class="st0" d="M397.9,530.6c-26,0-49.7-7-71-21c-21.3-14-37.3-32-48-54l-105-184c-22,39.3-32,83.3-32,128
		c0,64,20.8,119.8,62.5,167.5s93.5,76.2,155.5,85.5l74.3-128.5C426.7,526.3,414.2,530.6,397.9,530.6L397.9,530.6z"/>
	<path id="path7-1" class="st0" d="M317.4,296.1c23.6-18.3,50.5-24.5,80.5-24.5c4,0,220,0,220,0c-22.7-38.7-53.5-71.3-92.5-94
		c-39-22.7-81.5-34-127.5-34c-40,0-77.3,8.5-112,25.5c-34.7,17-66.8,41.7-90.3,73.5l74.3,125C277.2,339,293.7,314.5,317.4,296.1
		L317.4,296.1z"/>
	<path id="path9-7" class="st0" d="M634.7,303.6H485.9c26,26,43,59.3,43,96c0,27.3-7.7,52.3-23,75l-105,181c70-0.7,129.7-26,179-76
		c49.3-50,74-110,74-180C653.9,367,648.4,332.6,634.7,303.6L634.7,303.6z"/>
	<circle id="circle11" class="st0" cx="397.9" cy="399.6" r="96"/>
</g>
</svg>
